<?xml version="1.0" encoding="UTF-8"?>
<!DOCTYPE svg PUBLIC "-//W3C//DTD SVG 1.1//EN" "http://www.w3.org/Graphics/SVG/1.1/DTD/svg11.dtd">
<!-- Creator: CorelDRAW -->
<svg xmlns="http://www.w3.org/2000/svg" xml:space="preserve" width="50mm" height="100mm" style="shape-rendering:geometricPrecision; text-rendering:geometricPrecision; image-rendering:optimizeQuality; fill-rule:evenodd; clip-rule:evenodd"
viewBox="0 0 50 100"
 xmlns:xlink="http://www.w3.org/1999/xlink">
 <defs>
  <style type="text/css">
   <![CDATA[
    .fil2 {fill:#1F1A17}
    .fil0 {fill:#FFF500}
    .fil1 {fill:white}
   ]]>
  </style>
 </defs>
 <g id="Слой_x0020_1">
  <metadata id="CorelCorpID_0Corel-Layer"/>
  <g id="_191547352">
   <polygon id="_192045296" class="fil0" points="2.4065,0.9023 16.6925,13.641 19.8241,18.8234 21.9666,23.7793 24.7488,38.2534 25.9269,48.0957 27.5779,61.8886 26.8413,61.8121 25.367,61.7816 24.0171,62.0815 22.6495,62.7098 21.1708,63.9052 20.1587,65.312 19.4749,67.1965 19.3902,69.33 19.8231,71.0158 21.2859,73.249 23.1984,74.6121 25.8979,75.3711 28.8729,75.9846 35.6297,77.6614 37.5782,78.408 39.7157,79.6052 41.3875,80.9053 43.046,82.6652 44.1866,84.501 45.1296,86.387 45.8676,88.068 46.4416,89.79 46.6466,92.2148 46.6056,95.038 46.425,98.9977 39.6687,98.9977 31.9725,98.9977 25.063,98.9977 14.9946,98.9977 2.4065,98.9977 2.4065,93.931 2.4065,90.077 2.4065,80.647 2.4065,75.727 2.4065,69.659 2.4065,58.917 2.4065,49.487 2.4065,41.615 2.4065,33.456 2.4065,23.247 2.4065,13.243 "/>
   <polygon id="_192035840" class="fil1" points="9.188,15.0504 10.2337,16.3304 11.5508,18.1362 12.7614,20.0391 14.0876,22.4963 15.3084,25.2935 16.2262,27.999 17.128,31.8603 17.7389,36.5465 18.3553,41.7138 19.1296,48.2053 19.6483,52.5535 20.1103,56.4273 18.8932,57.1154 16.9777,58.5818 15.9618,59.6152 14.6238,61.4056 13.474,63.7097 13.0244,65.113 9.188,65.113 9.188,61.1733 9.188,46.7237 9.188,30.4679 "/>
   <polygon id="_192036872" class="fil1" points="9.188,71.8959 13.0244,71.8959 13.3936,73.0854 14.1013,74.7044 15.0563,76.2799 16.2334,77.7321 17.7706,79.1474 19.5539,80.3355 21.5322,81.2347 23.4354,81.7614 24.7353,82.0661 26.6328,82.6014 29.3421,83.1761 31.3946,83.5045 33.4731,84.0826 35.5162,84.9543 37.0632,86.1278 38.4528,87.8573 39.2978,89.7375 39.6687,92.2148 37.47,92.2148 33.2008,92.2148 29.5056,92.2148 25.9725,92.2148 21.2963,92.2148 15.8777,92.2148 10.9517,92.2148 9.188,92.2148 9.188,90.0725 9.188,87.3632 9.188,84.3255 9.188,81.2878 9.188,77.5112 9.188,74.063 "/>
  </g>
  <g id="_192040856">
   <polygon id="_190497224" class="fil2" points="-290.384,66.6598 -304.67,79.3985 -307.802,84.5809 -309.944,89.5368 -312.726,104.011 -313.904,113.853 -315.555,127.646 -314.819,127.57 -313.345,127.539 -311.995,127.839 -310.627,128.467 -309.148,129.663 -308.136,131.07 -307.452,132.954 -307.368,135.088 -307.801,136.773 -309.263,139.007 -311.176,140.37 -313.875,141.129 -316.85,141.742 -323.607,143.419 -325.556,144.166 -327.693,145.363 -329.365,146.663 -331.024,148.423 -332.164,150.259 -333.107,152.144 -333.845,153.826 -334.419,155.548 -334.624,157.972 -334.583,160.796 -334.403,164.755 -327.646,164.755 -319.95,164.755 -313.041,164.755 -302.972,164.755 -290.384,164.755 -290.384,159.689 -290.384,155.834 -290.384,146.404 -290.384,141.485 -290.384,135.416 -290.384,124.675 -290.384,115.245 -290.384,107.373 -290.384,99.2135 -290.384,89.0045 -290.384,79.0005 "/>
   <polygon id="_192033560" class="fil1" points="-297.166,80.8079 -298.211,82.0879 -299.528,83.8937 -300.739,85.7966 -302.065,88.2538 -303.286,91.051 -304.204,93.7565 -305.106,97.6178 -305.716,102.304 -306.333,107.471 -307.107,113.963 -307.626,118.311 -308.088,122.185 -306.871,122.873 -304.955,124.339 -303.939,125.373 -302.601,127.163 -301.452,129.467 -301.002,130.87 -297.166,130.87 -297.166,126.931 -297.166,112.481 -297.166,96.2254 "/>
   <polygon id="_191651768" class="fil1" points="-297.166,137.653 -301.002,137.653 -301.371,138.843 -302.079,140.462 -303.034,142.037 -304.211,143.49 -305.748,144.905 -307.531,146.093 -309.51,146.992 -311.413,147.519 -312.713,147.824 -314.61,148.359 -317.32,148.934 -319.372,149.262 -321.451,149.84 -323.494,150.712 -325.041,151.885 -326.43,153.615 -327.275,155.495 -327.646,157.972 -325.447,157.972 -321.178,157.972 -317.483,157.972 -313.95,157.972 -309.274,157.972 -303.855,157.972 -298.929,157.972 -297.166,157.972 -297.166,155.83 -297.166,153.121 -297.166,150.083 -297.166,147.045 -297.166,143.269 -297.166,139.821 "/>
  </g>
  <g id="_192038528">
   <polygon id="_192043688" class="fil2" points="-341.4,144.658 -340.869,146.688 -339.948,149.803 -339.028,152.588 -337.811,155.959 -336.697,158.846 -335.58,161.205 -334.479,163.364 -333.458,165.317 -332.436,167.243 -331.578,169.18 -330.675,171.314 -329.337,173.568 -328.843,175.578 -328.322,178.543 -328.053,181.331 -327.99,183.473 -328.048,186.749 -328.626,190.256 -329.196,192.825 -330.156,195.954 -331.062,198.253 -332.579,201.354 -334.55,204.554 -336.897,207.617 -339.697,210.567 -342.494,212.963 -343.824,213.991 -344.815,214.969 -345.942,216.39 -346.609,217.458 -347.442,216.154 -348.403,214.969 -349.561,213.846 -350.724,212.963 -352.176,211.779 -353.849,210.253 -355.664,208.369 -357.274,206.452 -358.664,204.56 -360.036,202.412 -361.478,199.729 -362.339,197.822 -363.206,195.54 -364.021,192.828 -364.592,190.256 -364.911,188.391 -364.993,185.764 -364.993,184.286 -365.221,182.891 -365.099,180.425 -364.812,177.967 -364.322,175.34 -363.881,173.567 -363.187,171.232 -362.037,169.098 -360.782,167.243 -359.245,164.336 -357.603,161.134 -356.547,158.913 -355.07,155.054 -354.054,152.191 -352.843,148.408 -352.059,145.607 -351.229,142.081 -350.644,138.882 -349.476,136.914 -347.67,135.765 -345.371,135.601 -343.975,137.161 -342.99,139.049 -342.185,141.105 -341.791,142.997 "/>
   <polygon id="_192035240" class="fil1" points="-345.259,156.115 -344.537,158.009 -343.651,160.15 -342.576,162.528 -341.575,164.572 -340.619,166.394 -339.909,167.677 -339.192,168.919 -340.705,169.475 -343.274,170.869 -344.891,172.121 -346.609,173.923 -347.359,173.055 -348.754,171.745 -350.537,170.483 -352.263,169.582 -354.025,168.919 -352.913,166.969 -351.442,164.174 -350.145,161.457 -349.149,159.163 -348.239,156.867 -347.547,154.962 -347.108,153.659 -346.609,152.078 -346.109,153.663 "/>
   <polygon id="_190001464" class="fil1" points="-356.13,175.355 -354.738,175.889 -354.029,176.278 -353.002,177.018 -352.284,177.695 -351.41,178.79 -350.601,180.313 -350.163,181.749 -350.001,182.974 -349.986,183.473 -351.332,183.473 -352.849,183.473 -354.858,183.473 -356.62,183.473 -358.445,183.473 -358.419,182.237 -358.327,180.844 -358.108,179.037 -357.822,177.437 -357.554,176.253 -357.252,175.117 -356.535,175.251 "/>
   <polygon id="_191648840" class="fil1" points="-337.052,175.355 -338.445,175.889 -339.154,176.278 -340.18,177.018 -340.898,177.695 -341.773,178.79 -342.582,180.313 -343.019,181.749 -343.182,182.974 -343.196,183.473 -341.851,183.473 -340.334,183.473 -338.325,183.473 -336.562,183.473 -334.738,183.473 -334.764,182.237 -334.856,180.844 -335.074,179.037 -335.361,177.437 -335.629,176.253 -335.931,175.117 -336.648,175.251 "/>
   <polygon id="_192045104" class="fil1" points="-354.53,190.256 -353.136,190.256 -351.988,190.256 -350.881,190.256 -349.986,190.256 -349.986,191.298 -349.986,193.348 -349.986,195.029 -349.986,196.3 -349.986,197.858 -349.986,199.293 -349.986,200.851 -349.986,202.163 -349.986,203.393 -349.986,204.505 -350.789,203.631 -351.471,202.833 -352.126,202.011 -352.89,200.974 -353.503,200.071 -354.024,199.244 -354.571,198.309 -355.25,197.029 -355.64,196.22 -356.246,194.822 -356.68,193.683 -357.091,192.452 -357.511,190.967 -357.683,190.256 -355.923,190.256 "/>
   <polygon id="_192043136" class="fil1" points="-338.524,190.256 -340.04,190.256 -341.288,190.256 -342.491,190.256 -343.464,190.256 -343.464,191.298 -343.464,193.348 -343.464,195.029 -343.464,196.3 -343.464,197.858 -343.464,199.293 -343.464,200.851 -343.464,202.163 -343.464,203.393 -343.464,204.505 -342.591,203.631 -341.849,202.833 -341.137,202.011 -340.307,200.974 -339.64,200.071 -339.073,199.244 -338.479,198.309 -337.741,197.029 -337.316,196.22 -336.657,194.822 -336.185,193.683 -335.738,192.452 -335.283,190.967 -335.096,190.256 -337.008,190.256 "/>
  </g>
  <polygon class="fil2" points="-343.914,40.3596 -342.973,42.4651 -342.062,45.6135 -341.659,49.6347 -341.724,52.1939 -341.856,55.4782 -342.09,59.7525 -342.354,63.8511 -342.58,67.1888 -342.879,71.7411 -343.143,76.497 -343.32,81.259 -343.366,85.6949 -343.035,90.6282 -342.168,96.0446 -340.882,101.309 -339.681,105.236 -338.667,108.182 -336.631,113.541 -334.946,116.909 -333.521,119.643 -331.627,123.295 -330.477,125.922 -329.142,129.037 -328.42,132.993 -328.121,137.67 -334.904,137.67 -335.046,134.786 -335.622,131.189 -336.388,127.564 -337.866,125.101 -339.803,122.291 -341.589,118.998 -343.094,115.894 -344.572,112.447 -345.791,109.189 -346.74,106.276 -347.738,109.331 -348.905,112.443 -349.946,114.917 -351.006,117.218 -352.09,119.386 -353.132,121.327 -354.156,123.117 -355.764,126.579 -357.382,129.314 -357.608,130.146 -357.93,131.526 -358.251,133.314 -358.456,135.022 -358.533,136.092 -358.566,136.935 -358.576,137.67 -365.357,137.67 -365.32,136.031 -365.22,134.508 -364.991,132.493 -364.674,130.599 -364.257,128.707 -363.724,126.794 -362.861,124.984 -361.958,123.339 -361.219,122.043 -360.586,120.827 -359.845,119.429 -358.453,116.753 -357.841,115.547 -356.738,113.261 -356.021,111.429 -355.422,109.847 -354.634,107.682 -353.867,105.443 -353.179,103.286 -352.343,100.384 -351.731,97.955 -351.171,95.3436 -350.794,93.2021 -350.584,91.763 -350.353,89.7682 -350.215,88.0809 -350.129,86.3327 -350.111,83.8025 -350.156,81.3342 -350.213,79.4416 -350.292,77.4257 -350.38,75.5746 -350.496,73.4555 -350.624,71.3371 -350.757,69.2794 -350.922,66.8315 -351.128,63.8077 -351.322,60.8257 -351.446,58.7892 -351.601,55.9295 -351.71,53.4408 -351.778,51.4045 -351.816,49.3063 -351.681,47.271 -351.447,45.7677 -351.077,44.2043 -350.652,42.8648 -350.124,41.5334 -349.567,40.3631 -348.717,38.8748 -347.878,37.6387 -347.045,36.5782 -346.74,36.2235 -346.214,36.8453 -345.719,37.4806 -345.105,38.3458 -344.56,39.2027 "/>
 </g>
</svg>
