<?xml version="1.0" encoding="UTF-8"?>
<!DOCTYPE svg PUBLIC "-//W3C//DTD SVG 1.1//EN" "http://www.w3.org/Graphics/SVG/1.1/DTD/svg11.dtd">
<!-- Creator: CorelDRAW -->
<svg xmlns="http://www.w3.org/2000/svg" xml:space="preserve" width="90mm" height="70mm" style="shape-rendering:geometricPrecision; text-rendering:geometricPrecision; image-rendering:optimizeQuality; fill-rule:evenodd; clip-rule:evenodd"
viewBox="0 0 90 70"
 xmlns:xlink="http://www.w3.org/1999/xlink">
 <defs>
  <style type="text/css">
   <![CDATA[
    .fil0 {fill:#2C4B91}
    .fil2 {fill:#85782B}
    .fil1 {fill:#F7D000}
   ]]>
  </style>
    <clipPath id="id0">
     <path d="M36.9246 63.0361c-0.0012,-0.0009 -0.0023,-0.0018 -0.0035,-0.0026 0.0012,0.0008 0.0023,0.0017 0.0035,0.0026l0 0zm-0.0572 -0.0445c-0.0042,-0.0033 -0.0079,-0.0063 -0.0121,-0.0096 0.004,0.0033 0.0081,0.0063 0.0121,0.0096l0 0zm-0.4969 -0.4443c-0.1124,-0.1139 -0.2205,-0.2336 -0.3235,-0.3584 0.0388,0.0467 0.0781,0.0927 0.1179,0.1379 0.0667,0.0754 0.1353,0.1491 0.2055,0.2205l0.0001 0zm-0.3444 -0.384c-0.0051,-0.0063 -0.0102,-0.0125 -0.0153,-0.0188 0.0051,0.0063 0.0102,0.0125 0.0153,0.0188l0 0zm-0.407 -0.5729c-0.0065,-0.0105 -0.0127,-0.0208 -0.0192,-0.0313 0.0065,0.0103 0.0127,0.0208 0.0192,0.0313l0 0zm-0.0415 -0.0684c-0.0051,-0.0086 -0.0101,-0.0168 -0.0152,-0.0253 0.0051,0.0085 0.0101,0.0169 0.0151,0.0253l0.0001 0zm-0.3419 -0.6643c-0.0017,-0.0038 -0.0036,-0.0083 -0.0053,-0.0122 0.0019,0.0041 0.0036,0.0081 0.0053,0.0122l0 0zm-0.0309 -0.0719c-0.004,-0.0096 -0.0081,-0.0193 -0.0122,-0.0291 0.0041,0.0098 0.0082,0.0194 0.0122,0.0291l0 0zm-0.014 -0.0334c-0.0443,-0.1064 -0.0864,-0.2156 -0.1261,-0.3273 0.0081,0.0225 0.016,0.0448 0.0243,0.067 0.0325,0.0884 0.0664,0.1752 0.1018,0.2603l0 0zm-0.1264 -0.3281c-0.0061,-0.0175 -0.0126,-0.036 -0.0186,-0.0535 0.0061,0.0178 0.0123,0.0357 0.0186,0.0535l0 0zm-0.0268 -0.0776c-0.0065,-0.0188 -0.013,-0.038 -0.0193,-0.0571 0.0063,0.0192 0.0128,0.0383 0.0193,0.0572l0 -0.0001zm-0.0225 -0.0671c-0.02,-0.0603 -0.0394,-0.1215 -0.0578,-0.1833 0.0186,0.0617 0.0378,0.123 0.0577,0.1833l0.0001 0zm-0.0734 -0.2356c-0.0015,-0.0051 -0.0032,-0.0104 -0.0047,-0.0155 0.0017,0.0052 0.0032,0.0103 0.0047,0.0156l0 -0.0001zm-0.0777 -0.2875c-0.0029,-0.0115 -0.0059,-0.0232 -0.0085,-0.0348 0.0028,0.0116 0.0056,0.0233 0.0085,0.0348l0 0zm-0.0214 -0.0886c-0.0042,-0.0176 -0.0083,-0.0347 -0.0124,-0.0524 0.0041,0.0175 0.0082,0.035 0.0123,0.0524l0.0001 0zm-0.0284 -0.1232c-0.0015,-0.0072 -0.0033,-0.015 -0.0048,-0.0223 0.0017,0.0074 0.0031,0.015 0.0048,0.0223l0 0zm-0.0615 -0.3066c-0.0277,-0.153 -0.0519,-0.3099 -0.0725,-0.4709 0.0209,0.1613 0.0452,0.3182 0.0725,0.4709l0 0zm-0.1261 -1.0035c-0.0017,-0.0231 -0.0034,-0.0475 -0.005,-0.0708 0.0016,0.0237 0.0033,0.0472 0.0049,0.0708l0.0001 0zm-0.0051 -0.0733c-0.0176,-0.2582 -0.0266,-0.5255 -0.0266,-0.8026 0,-0.1726 -0.0036,-0.3427 -0.0106,-0.5104 0.0058,0.1359 0.0097,0.2737 0.0106,0.4132 0.0013,0.212 0.004,0.4834 0.0162,0.7223 0.003,0.0597 0.0065,0.1189 0.0103,0.1775l0.0001 0zm-0.0581 -1.6727c-0.0007,-0.011 -0.0015,-0.0219 -0.0024,-0.0327 0.0008,0.0109 0.0017,0.0217 0.0024,0.0327l0 0zm-0.0047 -0.0626c-0.0077,-0.0994 -0.0169,-0.198 -0.0273,-0.2958 -0.0001,-0.003 -0.0001,-0.0057 -0.0002,-0.0088 0.0103,0.1005 0.0196,0.2021 0.0275,0.3047l0 -0.0001zm9.8368 -36.1508c-0.0862,0 -0.1717,-0.0013 -0.256,-0.004 -0.1701,-0.0054 -0.3375,-0.0176 -0.5009,-0.0351 -0.1634,-0.0176 -0.324,-0.0405 -0.4819,-0.0702 -0.158,-0.0284 -0.3119,-0.0648 -0.4631,-0.1067 -0.1512,-0.0405 -0.2983,-0.089 -0.4428,-0.143 -0.1444,-0.0554 -0.2848,-0.1162 -0.4225,-0.1836 -0.1274,-0.0631 -0.2525,-0.1322 -0.374,-0.2081 0.8451,0.5214 1.844,0.7506 2.9538,0.7506 0.0377,0 0.0752,-0.0003 0.1131,-0.0008 -0.0421,0.0006 -0.084,0.0009 -0.1257,0.0009l0 0zm0.4364 -0.0109c0.1836,-0.0091 0.37,-0.024 0.559,-0.0444l0 0c-0.067,0.0077 -0.1336,0.0143 -0.1998,0.0203 -0.1208,0.0107 -0.2407,0.0185 -0.3592,0.0241l0 0zm-3.4305 -0.7731c-0.1213,-0.0762 -0.2378,-0.1582 -0.3521,-0.2474 -0.1215,-0.0958 -0.2403,-0.1984 -0.3551,-0.3078 -0.1133,-0.1107 -0.2241,-0.2281 -0.3307,-0.3523 -0.1066,-0.1256 -0.2079,-0.2579 -0.3065,-0.3983 -0.0514,-0.0742 -0.1015,-0.1507 -0.1507,-0.2293 0.4164,0.664 0.9191,1.1686 1.495,1.5351l0.0001 0zm-1.5884 -1.6892c-0.0119,-0.02 -0.0237,-0.0403 -0.0354,-0.0607 -0.015,-0.0264 -0.0299,-0.0531 -0.0446,-0.0798 0.0263,0.0475 0.0528,0.0945 0.08,0.1405l0 0zm-0.0891 -0.1572c-0.0066,-0.012 -0.0132,-0.0241 -0.0197,-0.0361 0.0065,0.012 0.0131,0.0241 0.0197,0.0361l0 0zm-0.0397 -0.0736c-0.0029,-0.0054 -0.0058,-0.0108 -0.0086,-0.0162 0.0029,0.0054 0.0057,0.0108 0.0085,0.0162l0.0001 0zm-0.2183 -0.4511c-0.0542,-0.1221 -0.1058,-0.2481 -0.1547,-0.378 0.0493,0.1299 0.101,0.2562 0.1547,0.378l0 0zm-0.1629 -0.3997c-0.0019,-0.0053 -0.0041,-0.0105 -0.006,-0.0159 -0.0014,-0.0035 -0.0026,-0.0069 -0.0039,-0.0104 0.0034,0.009 0.0066,0.0173 0.0099,0.0263l0 0zm-0.0108 -0.0287c-0.0698,-0.1852 -0.1343,-0.3793 -0.1937,-0.5812 -0.0607,-0.2066 -0.1174,-0.4226 -0.1687,-0.6467 -0.0513,-0.2254 -0.0972,-0.459 -0.1391,-0.702 -0.0358,-0.2154 -0.0685,-0.4372 -0.0963,-0.6672 0.1227,1.002 0.3249,1.8635 0.5978,2.5971l0 0zm-0.6264 -2.8483c-0.0207,-0.1907 -0.0384,-0.3862 -0.0527,-0.5865 0.0147,0.2003 0.0323,0.3961 0.0527,0.5865l0 0zm-0.0625 -0.728c-0.0176,-0.2573 -0.0307,-0.5232 -0.038,-0.7971 -0.0081,-0.3011 -0.0149,-0.482 -0.0311,-0.7088 -0.007,-0.1081 -0.0151,-0.2154 -0.0243,-0.3218 0.0276,0.3106 0.0459,0.6284 0.054,0.9536 0.0075,0.3013 0.0206,0.5924 0.0393,0.8741l0.0001 0z"/>
    </clipPath>
    <clipPath id="id1">
     <path d="M40.8345 41.7958c-0.0597,0 -0.1191,-0.0004 -0.178,-0.0013 -0.1864,-0.0041 -0.37,-0.0122 -0.5495,-0.0257 -0.1809,-0.0148 -0.3578,-0.0338 -0.5305,-0.0594 -0.1729,-0.0243 -0.343,-0.0553 -0.509,-0.0918 -0.1674,-0.0364 -0.3294,-0.0783 -0.4887,-0.1269 -0.1593,-0.0486 -0.3132,-0.1026 -0.4644,-0.1634 -0.1512,-0.0607 -0.2984,-0.1269 -0.4415,-0.2011 -0.1431,-0.0729 -0.2821,-0.1526 -0.4171,-0.2389 -0.1337,-0.0865 -0.2647,-0.1796 -0.3902,-0.2808 -0.1255,-0.1 -0.2471,-0.2066 -0.3631,-0.32 -0.1161,-0.1148 -0.2282,-0.2363 -0.3348,-0.3645 -0.1067,-0.1283 -0.2093,-0.2646 -0.3065,-0.4077 -0.0972,-0.1431 -0.189,-0.2943 -0.2754,-0.4536 -0.0864,-0.158 -0.1674,-0.3254 -0.243,-0.4995 -0.0769,-0.1756 -0.1471,-0.3578 -0.2119,-0.5481 -0.0185,-0.0547 -0.0365,-0.1098 -0.054,-0.1655 0.7907,-10.123 2.2074,-19.7151 3.2751,-27.7514 0.0684,0.3841 0.1213,0.7814 0.1579,1.1915 0.0092,0.1064 0.0173,0.2137 0.0243,0.3218 0.0162,0.2268 0.023,0.4078 0.0311,0.7088 0.0073,0.2739 0.0204,0.5399 0.0379,0.7971 0.0032,0.0475 0.0065,0.0945 0.0099,0.1415 0.0143,0.2003 0.032,0.3958 0.0527,0.5865 0.009,0.0847 0.0186,0.1683 0.0286,0.2512 0.0278,0.23 0.0605,0.4518 0.0963,0.6672 0.0419,0.243 0.0878,0.4766 0.1391,0.702 0.0513,0.2241 0.108,0.4401 0.1687,0.6467 0.0594,0.2019 0.1239,0.396 0.1937,0.5812 0.0003,0.0008 0.0006,0.0017 0.0009,0.0024 0.0014,0.0035 0.0025,0.0069 0.0039,0.0104 0.0019,0.0054 0.0041,0.0106 0.006,0.0159 0.0027,0.0072 0.0054,0.0145 0.0082,0.0217 0.049,0.1299 0.1005,0.256 0.1547,0.378 0.0666,0.1512 0.1365,0.2958 0.2097,0.4349 0.0029,0.0054 0.0057,0.0108 0.0085,0.0162 0.0068,0.0124 0.0134,0.025 0.0201,0.0375 0.0065,0.012 0.0131,0.0241 0.0197,0.0361 0.003,0.0054 0.0061,0.0111 0.0091,0.0167 0.0147,0.0267 0.0296,0.0534 0.0446,0.0798 0.0117,0.0204 0.0235,0.0407 0.0354,0.0607 0.0306,0.0524 0.0616,0.1037 0.0933,0.1541 0.0492,0.0786 0.0993,0.1551 0.1507,0.2293 0.0986,0.1404 0.1999,0.2727 0.3065,0.3983 0.1066,0.1242 0.2174,0.2417 0.3307,0.3523 0.1148,0.1094 0.2336,0.212 0.3551,0.3078 0.1143,0.0891 0.2308,0.1712 0.352,0.2474 0.0176,0.0112 0.0353,0.0223 0.053,0.0333 0.1215,0.0759 0.2466,0.145 0.374,0.2081 0.1377,0.0674 0.2781,0.1282 0.4225,0.1836 0.1445,0.0539 0.2916,0.1026 0.4428,0.143 0.1512,0.0419 0.3051,0.0784 0.4631,0.1067 0.1579,0.0297 0.3185,0.0527 0.4819,0.0702 0.1634,0.0175 0.3308,0.0297 0.5009,0.0351 0.0843,0.0027 0.1698,0.004 0.256,0.004 0.0417,0 0.0836,-0.0003 0.1257,-0.0009 0.1026,-0.0015 0.2063,-0.0048 0.3107,-0.01 0.1185,-0.0056 0.2383,-0.0133 0.3592,-0.0241 0.0662,-0.0061 0.1328,-0.0126 0.1998,-0.02 -0.2905,2.6204 -0.4384,5.5183 -0.4378,8.5462 0.0007,3.9486 0.2541,8.1191 0.7729,12.1838 -0.0303,0.0092 -0.0605,0.0184 -0.0907,0.0275 -0.2241,0.0675 -0.4482,0.1309 -0.6683,0.1903 -0.2214,0.0594 -0.4401,0.1148 -0.6574,0.1674 -0.2173,0.0513 -0.4334,0.0999 -0.6453,0.1432 -0.2133,0.0445 -0.4239,0.0837 -0.6332,0.1188 -0.2079,0.035 -0.4145,0.0661 -0.6169,0.0918 -0.2039,0.0256 -0.405,0.0472 -0.6035,0.0648 -0.1971,0.0162 -0.3929,0.0283 -0.5859,0.0351 -0.131,0.0046 -0.2615,0.0067 -0.3903,0.0067z"/>
    </clipPath>
    <clipPath id="id2">
     <path d="M42.4934 64.548c-2.2139,-0.0001 -4.1617,-0.4299 -5.5688,-1.5119 -0.0012,-0.0009 -0.0023,-0.0018 -0.0035,-0.0026 -0.0178,-0.0139 -0.036,-0.028 -0.0537,-0.0419 -0.004,-0.0033 -0.0081,-0.0063 -0.0121,-0.0096 -0.1698,-0.1349 -0.3318,-0.2799 -0.4849,-0.4347 -0.0701,-0.0714 -0.1388,-0.1451 -0.2055,-0.2205 -0.0398,-0.0452 -0.0791,-0.0912 -0.1179,-0.1379 -0.007,-0.0087 -0.0139,-0.0171 -0.0209,-0.0256 -0.0051,-0.0063 -0.0102,-0.0125 -0.0153,-0.0188 -0.14,-0.1737 -0.2708,-0.3585 -0.3917,-0.5541 -0.0065,-0.0105 -0.0127,-0.021 -0.0192,-0.0313 -0.0077,-0.0126 -0.0148,-0.0245 -0.0224,-0.0371 -0.005,-0.0084 -0.01,-0.0168 -0.0151,-0.0253 -0.1189,-0.2013 -0.2283,-0.4143 -0.3267,-0.639 -0.0017,-0.0041 -0.0034,-0.0081 -0.0053,-0.0122 -0.0086,-0.0198 -0.0171,-0.0396 -0.0256,-0.0597 -0.004,-0.0097 -0.0081,-0.0193 -0.0122,-0.0291 -0.0007,-0.0015 -0.0012,-0.0028 -0.0018,-0.0043 -0.0353,-0.0851 -0.0693,-0.1719 -0.1018,-0.2603 -0.0082,-0.0222 -0.0162,-0.0445 -0.0243,-0.067 -0.0001,-0.0003 -0.0002,-0.0003 -0.0003,-0.0008 -0.0063,-0.0179 -0.0125,-0.0357 -0.0186,-0.0535 -0.0028,-0.0083 -0.0054,-0.0158 -0.0082,-0.024 -0.0065,-0.0189 -0.013,-0.038 -0.0193,-0.0572 -0.0011,-0.0033 -0.0022,-0.0067 -0.0033,-0.01 -0.0199,-0.0603 -0.0391,-0.1215 -0.0577,-0.1833 -0.0052,-0.0174 -0.0105,-0.0345 -0.0156,-0.0522 -0.0015,-0.0053 -0.003,-0.0104 -0.0047,-0.0156 -0.0256,-0.0891 -0.05,-0.1799 -0.073,-0.272 -0.0029,-0.0115 -0.0057,-0.0232 -0.0085,-0.0348 -0.0046,-0.018 -0.0088,-0.0358 -0.013,-0.0538 -0.0041,-0.0175 -0.0082,-0.0349 -0.0123,-0.0524 -0.0054,-0.0235 -0.0108,-0.0469 -0.016,-0.0708 -0.0017,-0.0073 -0.0031,-0.0149 -0.0048,-0.0223 -0.0202,-0.0934 -0.0392,-0.1878 -0.0567,-0.2843 -0.0273,-0.1527 -0.0516,-0.3096 -0.0725,-0.4709 -0.0222,-0.1729 -0.04,-0.3505 -0.0537,-0.5326 -0.0016,-0.0236 -0.0033,-0.0471 -0.0049,-0.0708 0,-0.0011 -0.0002,-0.0015 -0.0002,-0.0025 -0.0038,-0.0586 -0.0073,-0.1178 -0.0103,-0.1775 -0.0121,-0.2389 -0.0149,-0.5103 -0.0162,-0.7223 -0.0009,-0.1395 -0.0048,-0.2773 -0.0106,-0.4132 -0.0053,-0.1212 -0.0122,-0.2411 -0.0209,-0.3597 -0.0007,-0.011 -0.0017,-0.0218 -0.0024,-0.0327 -0.0008,-0.0099 -0.0015,-0.02 -0.0023,-0.0298 -0.0079,-0.1027 -0.0172,-0.2042 -0.0275,-0.3047 -0.0358,-1.2884 -0.0529,-2.5783 -0.0536,-3.867 -0.0022,-4.8484 0.2304,-9.6855 0.5993,-14.4068 0.0175,0.0557 0.0355,0.1109 0.054,0.1655 0.0648,0.1903 0.135,0.3726 0.2119,0.5481 0.0756,0.1741 0.1566,0.3415 0.243,0.4995 0.0864,0.1593 0.1782,0.3105 0.2754,0.4536 0.0972,0.1431 0.1998,0.2794 0.3065,0.4077 0.1066,0.1282 0.2186,0.2497 0.3348,0.3645 0.116,0.1134 0.2376,0.22 0.3631,0.32 0.1256,0.1012 0.2565,0.1943 0.3902,0.2808 0.135,0.0863 0.274,0.166 0.4171,0.2389 0.1431,0.0742 0.2903,0.1404 0.4415,0.2011 0.1512,0.0608 0.3051,0.1148 0.4644,0.1634 0.1593,0.0486 0.3213,0.0905 0.4887,0.1269 0.166,0.0364 0.3361,0.0675 0.509,0.0918 0.1727,0.0256 0.3496,0.0446 0.5305,0.0594 0.1795,0.0135 0.3631,0.0216 0.5495,0.0257 0.0589,0.0009 0.1183,0.0013 0.178,0.0013 0.1289,0 0.2593,-0.0021 0.3903,-0.0067 0.193,-0.0068 0.3888,-0.0189 0.5859,-0.0351 0.1985,-0.0176 0.3996,-0.0392 0.6035,-0.0648 0.2024,-0.0257 0.409,-0.0568 0.6169,-0.0918 0.2093,-0.0352 0.4199,-0.0743 0.6332,-0.1188 0.2119,-0.0433 0.4279,-0.0919 0.6453,-0.1432 0.2173,-0.0526 0.436,-0.108 0.6574,-0.1674 0.2201,-0.0594 0.4442,-0.1228 0.6683,-0.1903 0.0302,-0.0092 0.0604,-0.0183 0.0907,-0.0275 1.1203,8.7774 3.4788,17.0642 7.206,21.5764 -3.4852,1.1244 -7.2394,2.0215 -10.4386,2.0214z"/>
    </clipPath>
    <clipPath id="id3">
     <path d="M80.3359 64.395c-0.0004,-0.0003 -0.0007,-0.0007 -0.0012,-0.001 -0.0057,-0.1537 -0.0115,-0.3065 -0.0171,-0.4586 -0.0043,-0.118 -0.0084,-0.2357 -0.0126,-0.3527 -0.001,-0.0271 -0.0019,-0.0543 -0.0028,-0.0814 -0.0047,-0.137 -0.009,-0.2733 -0.0133,-0.4095 -0.0043,-0.1485 -0.0083,-0.2961 -0.0124,-0.4423 -0.0016,-0.0604 -0.0033,-0.1202 -0.0049,-0.1801 -0.0074,-0.2824 -0.0144,-0.5628 -0.0194,-0.8419 -0.0067,-0.3078 -0.0122,-0.6116 -0.0162,-0.914 -0.002,-0.1462 -0.0039,-0.2916 -0.0055,-0.4362 -0.0005,-0.0577 -0.001,-0.1152 -0.0013,-0.1726 -0.0008,-0.089 -0.0017,-0.1778 -0.0025,-0.2663 0,-0.0088 -0.0001,-0.0178 -0.0001,-0.0267 -0.0006,-0.0724 -0.0012,-0.1446 -0.0017,-0.2168 -0.0007,-0.0996 -0.0011,-0.1988 -0.0011,-0.2976 -0.001,-0.1993 -0.0013,-0.3971 -0.0013,-0.5929 0,-0.2197 0.0003,-0.4379 0.0013,-0.6545 0.001,-0.1849 0.0023,-0.3682 0.004,-0.5509 0.0014,-0.1491 0.0031,-0.2972 0.0048,-0.4445 0.0033,-0.2401 0.0067,-0.4792 0.0102,-0.7164 0.0022,-0.1177 0.0045,-0.2353 0.0069,-0.3526 0.0036,-0.1598 0.007,-0.3191 0.0106,-0.4776 0.0007,-0.0327 0.0015,-0.0653 0.0022,-0.098 0.0061,-0.2464 0.0122,-0.492 0.0194,-0.7363 0.0078,-0.265 0.0156,-0.5271 0.0248,-0.7883 0.0057,-0.1536 0.0115,-0.3061 0.0169,-0.4581 0.0018,-0.0456 0.0036,-0.091 0.0054,-0.1367 0.0066,-0.1608 0.0132,-0.3211 0.0198,-0.4807 0.0081,-0.1848 0.0165,-0.3684 0.0249,-0.5514 0.0069,-0.1482 0.0137,-0.2956 0.0209,-0.4427 0.0069,-0.1393 0.014,-0.2785 0.021,-0.4173 0.0043,-0.0831 0.0088,-0.1659 0.0134,-0.2484 0.0071,-0.1243 0.0142,-0.2485 0.0212,-0.3724 0.0015,-0.0261 0.003,-0.0524 0.0045,-0.0785 0.003,-0.0517 0.0062,-0.1036 0.0092,-0.1554 0.0109,-0.1789 0.0217,-0.3585 0.0327,-0.5371 0.0037,-0.0605 0.0075,-0.1208 0.0114,-0.1812 0.0147,-0.2178 0.0287,-0.4346 0.0439,-0.6504 0.0131,-0.1872 0.0261,-0.3729 0.0397,-0.5582 0.0002,-0.0018 0.0004,-0.0037 0.0005,-0.0056 0.0017,-0.0226 0.0035,-0.0452 0.0051,-0.0679 -0.2466,3.3473 -0.3748,6.7553 -0.3744,10.2248 0.0003,1.8581 0.0374,3.7337 0.1131,5.6269l0 0zm-0.0426 -0.0413c-0.0006,-0.0005 -0.0013,-0.0013 -0.0019,-0.0019 -0.3754,-0.8762 -1.0098,-1.6605 -1.8496,-2.3436 -0.0006,-0.0011 -0.0012,-0.0021 -0.0019,-0.0032 0.0905,0.0735 0.1789,0.1484 0.2652,0.2246 0.1823,0.162 0.3551,0.3294 0.5171,0.5035 0.1606,0.1742 0.3104,0.3551 0.4482,0.54 0.1377,0.1863 0.2618,0.378 0.3739,0.5765 0.092,0.1636 0.1755,0.3319 0.249,0.5041l0 0zm0.3146 -15.9539c0.017,-0.2391 0.0352,-0.4772 0.0547,-0.7139 0.0023,-0.0299 0.0046,-0.0595 0.0071,-0.0894 0.0064,-0.08 0.013,-0.1599 0.0199,-0.24 0.0074,-0.0922 0.015,-0.1848 0.0227,-0.2773 0.0037,-0.0422 0.0073,-0.0844 0.0111,-0.1264 0.0168,-0.2018 0.0346,-0.4037 0.0524,-0.604 0.0096,-0.1073 0.0194,-0.2145 0.0299,-0.322 0.0069,-0.0769 0.014,-0.1538 0.021,-0.2308 0.0092,-0.0966 0.0183,-0.1929 0.0276,-0.289 0.0229,-0.2376 0.0459,-0.4752 0.0702,-0.7115 0.023,-0.2362 0.0486,-0.4711 0.0729,-0.706 0.0009,-0.0095 0.002,-0.0189 0.003,-0.0284 0.0021,-0.0202 0.0044,-0.0405 0.0065,-0.0607 0.0243,-0.2282 0.0499,-0.4577 0.0756,-0.6885 0.0256,-0.2309 0.0526,-0.4617 0.0796,-0.6953 0.0266,-0.2295 0.0545,-0.4605 0.0836,-0.6926 -0.2612,2.1328 -0.4746,4.2909 -0.6379,6.4758l0.0001 0zm0.642 -6.5104c0.0049,-0.0408 0.0097,-0.0816 0.0148,-0.1223 0.017,-0.1376 0.0341,-0.2747 0.0512,-0.4114 0.0067,-0.053 0.0135,-0.106 0.0204,-0.1593 0.031,-0.2403 0.0621,-0.4819 0.0945,-0.7249 0.0318,-0.2398 0.0648,-0.4808 0.0979,-0.7243 0.0017,-0.012 0.0033,-0.024 0.0051,-0.036 0.0177,-0.1251 0.0354,-0.2508 0.0534,-0.3771 0.0018,-0.0129 0.0037,-0.0258 0.0056,-0.0385 0.0018,-0.0136 0.0037,-0.027 0.0057,-0.0405 0.0127,-0.0902 0.0256,-0.1805 0.0388,-0.2714 0.0341,-0.2357 0.0693,-0.4738 0.1046,-0.7131 0.0154,-0.1023 0.031,-0.2044 0.0466,-0.3061 0.0065,-0.044 0.0131,-0.0876 0.0197,-0.1314 0.0059,-0.0392 0.0118,-0.0783 0.0178,-0.1176 0.0212,-0.1377 0.0426,-0.2751 0.0638,-0.4125 0.0235,-0.1476 0.0471,-0.2945 0.0706,-0.4416 0.0116,-0.0715 0.0231,-0.1428 0.0347,-0.2145 0.0432,-0.2674 0.0877,-0.5374 0.1336,-0.81 0.0404,-0.2401 0.0818,-0.4832 0.1235,-0.7276 0.0244,-0.1422 0.0493,-0.2841 0.075,-0.4254 0.0378,-0.2173 0.0769,-0.4347 0.1161,-0.6507 0.0391,-0.2174 0.0796,-0.4333 0.1188,-0.6493 0.0405,-0.2161 0.0823,-0.432 0.1228,-0.648 0.0419,-0.2161 0.0837,-0.432 0.1256,-0.6467 0.0418,-0.216 0.085,-0.432 0.1282,-0.648 0.0433,-0.2147 0.0878,-0.4307 0.1323,-0.6467 0.0446,-0.2146 0.0892,-0.4306 0.135,-0.6466 0.046,-0.216 0.0918,-0.4307 0.1378,-0.6467 0.0472,-0.216 0.0944,-0.432 0.1417,-0.648 0.0486,-0.216 0.0959,-0.4333 0.1458,-0.6493 0.0486,-0.216 0.0985,-0.4334 0.1485,-0.6494 0.05,-0.2174 0.0999,-0.4347 0.1512,-0.652 0.0513,-0.2174 0.104,-0.4347 0.1566,-0.6534 0.0526,-0.2174 0.1053,-0.4361 0.1593,-0.6548 0.054,-0.2187 0.108,-0.4387 0.1633,-0.6575 0.0554,-0.22 0.1108,-0.44 0.1674,-0.6601 0.0568,-0.2201 0.1134,-0.4415 0.1715,-0.6629 0.0581,-0.2214 0.1161,-0.4428 0.1755,-0.6655 0.0594,-0.2214 0.1202,-0.4442 0.1809,-0.6683 0.0608,-0.2227 0.1215,-0.4468 0.1836,-0.6723 0.0621,-0.2241 0.1256,-0.4495 0.189,-0.675 0.0648,-0.2255 0.1283,-0.4523 0.1944,-0.6804 0.0648,-0.2268 0.131,-0.4549 0.1985,-0.6831 0.0661,-0.2282 0.135,-0.4576 0.2038,-0.6872 0.0675,-0.2308 0.1377,-0.4617 0.2079,-0.6925 0.0702,-0.2322 0.1418,-0.4644 0.2133,-0.698 0.0729,-0.2322 0.1458,-0.4671 0.2201,-0.702 0.0729,-0.2349 0.1485,-0.4698 0.2241,-0.706 0.0756,-0.2377 0.1525,-0.4739 0.2308,-0.7128 0.077,-0.239 0.1566,-0.4779 0.2363,-0.7182 0.0797,-0.2403 0.1606,-0.4806 0.2416,-0.7236 0.0824,-0.2417 0.1647,-0.4847 0.2484,-0.729 0.0838,-0.2444 0.1688,-0.4888 0.2552,-0.7358 0.0864,-0.2457 0.1728,-0.4928 0.2619,-0.7412 0.0878,-0.2484 0.1768,-0.4981 0.2673,-0.7479 0.0905,-0.2511 0.1822,-0.5022 0.2754,-0.7546 0.0503,-0.1384 0.1015,-0.2772 0.1531,-0.4164 0.0023,-0.004 0.0041,-0.0075 0.0062,-0.0116 -3.6897,9.9481 -6.4621,20.6476 -7.8665,32.097l0 0z"/>
    </clipPath>
    <clipPath id="id4">
     <path d="M80.3347 64.394c0,0 0,0 0,0 -0.006,-0.1541 -0.0115,-0.3069 -0.0171,-0.4586 0.0056,0.1521 0.0114,0.3049 0.0171,0.4586l0 0zm-0.0297 -0.8113c-0.0006,-0.0136 -0.001,-0.0273 -0.0015,-0.0409 -0.0054,-0.1507 -0.0102,-0.3009 -0.0146,-0.45 0.0043,0.1362 0.0086,0.2725 0.0133,0.4095 0.0009,0.0271 0.0018,0.0543 0.0028,0.0814l0 0zm-0.0334 -1.1133c-0.0063,-0.2323 -0.0123,-0.4618 -0.0167,-0.6893 -0.0067,-0.2863 -0.0121,-0.5698 -0.0162,-0.8479 -0.0031,-0.2206 -0.0064,-0.4387 -0.0082,-0.6549 0.0016,0.1446 0.0035,0.29 0.0055,0.4362 0.0041,0.3024 0.0094,0.6062 0.0162,0.914 0.005,0.2791 0.012,0.5595 0.0194,0.8419l0 0zm-0.0449 -2.631c-0.0007,-0.0813 -0.0013,-0.1625 -0.0018,-0.2435 0.0005,0.0722 0.0011,0.1444 0.0017,0.2168 0,0.0089 0.0001,0.0179 0.0001,0.0267l0 0zm-0.0042 -1.134c0,-0.0654 0,-0.1307 0,-0.1955 0,-0.2605 0.0013,-0.5184 0.0027,-0.7722 0.0009,-0.0795 0.0017,-0.1587 0.0026,-0.2377 -0.0017,0.1827 -0.003,0.366 -0.004,0.5509 -0.001,0.2166 -0.0013,0.4348 -0.0013,0.6545l0 0zm0.0101 -1.6499c0.0001,-0.025 0.0004,-0.05 0.0007,-0.0751 0.0027,-0.2498 0.0067,-0.4968 0.0108,-0.7425 0.0018,-0.084 0.0038,-0.1677 0.0056,-0.2514 -0.0024,0.1173 -0.0047,0.2349 -0.0069,0.3526 -0.0035,0.2372 -0.0069,0.4763 -0.0102,0.7164l0 0zm0.03 -1.6446c0.0046,-0.2076 0.0094,-0.4147 0.0152,-0.6189 0.0068,-0.2376 0.0149,-0.4725 0.0216,-0.7061 0.0023,-0.0667 0.0047,-0.1331 0.0073,-0.1996 -0.0092,0.2611 -0.017,0.5233 -0.0248,0.7883 -0.0072,0.2443 -0.0133,0.4899 -0.0194,0.7363l0.0001 0zm0.061 -1.9827c0.0005,-0.0134 0.0011,-0.0268 0.0015,-0.0402 0.0013,-0.0323 0.0027,-0.0642 0.0039,-0.0965 -0.0018,0.0457 -0.0036,0.0911 -0.0054,0.1367l0 0zm0.0252 -0.6174c0.0015,-0.0371 0.0032,-0.0742 0.0046,-0.1113 0.0095,-0.2282 0.0203,-0.455 0.0311,-0.6804 0.0033,-0.0675 0.0066,-0.1348 0.0101,-0.2024 -0.0072,0.147 -0.014,0.2945 -0.0209,0.4427 -0.0084,0.183 -0.0168,0.3666 -0.0249,0.5514l0 0zm0.0668 -1.4114c0.0009,-0.0184 0.0018,-0.0369 0.0026,-0.0553 0.0035,-0.0644 0.0071,-0.1287 0.0108,-0.1931 -0.0046,0.0825 -0.0091,0.1654 -0.0134,0.2484l0 0zm0.0346 -0.6208c0.002,-0.0351 0.0039,-0.0704 0.0058,-0.1054 0.0026,-0.0428 0.0053,-0.0856 0.0079,-0.1285 -0.003,0.0518 -0.0062,0.1037 -0.0092,0.1554 -0.0015,0.0261 -0.003,0.0524 -0.0045,0.0785l0 0zm0.0578 -0.9522c0.0102,-0.161 0.021,-0.3221 0.0318,-0.483 0.0148,-0.2201 0.031,-0.4415 0.0472,-0.6615 0.0015,-0.0213 0.0032,-0.0428 0.0046,-0.0641 -0.0136,0.1853 -0.0266,0.371 -0.0397,0.5582 -0.0152,0.2158 -0.0292,0.4326 -0.0439,0.6504l0 0zm0.0841 -1.2142c0.0146,-0.197 0.029,-0.395 0.0435,-0.5918 0.0113,-0.1406 0.0225,-0.2816 0.0341,-0.4229 -0.0024,0.0299 -0.0048,0.0596 -0.0071,0.0894 -0.0195,0.2367 -0.0378,0.4748 -0.0548,0.7139 -0.0035,0.0478 -0.0071,0.0957 -0.0106,0.1435 -0.0016,0.0227 -0.0034,0.0453 -0.0051,0.0679l0 0zm0.1202 -1.5321c0.0108,-0.1283 0.0217,-0.2569 0.0327,-0.3855 0.0105,-0.1152 0.0205,-0.23 0.0308,-0.3448 -0.0178,0.2002 -0.0356,0.4022 -0.0524,0.604 -0.0038,0.042 -0.0074,0.0842 -0.0111,0.1264l0 -0.0001zm0.1144 -1.2831c0.0134,-0.1465 0.027,-0.2934 0.0411,-0.4402 0.023,-0.2241 0.0446,-0.4482 0.0675,-0.675 0.0209,-0.2055 0.0429,-0.4121 0.0651,-0.6197 -0.001,0.0095 -0.0021,0.0189 -0.003,0.0284 -0.0243,0.2349 -0.0499,0.4698 -0.0729,0.706 -0.0242,0.2363 -0.0473,0.4739 -0.0702,0.7115 -0.0093,0.0961 -0.0184,0.1924 -0.0276,0.289l0 0zm0.438 -4.0289c0.0165,-0.1368 0.0336,-0.2737 0.0512,-0.4114 -0.0171,0.1366 -0.0342,0.2738 -0.0512,0.4114l0 0zm0.264 -2.0199c0.0006,-0.0048 0.0014,-0.0094 0.002,-0.0142 0.001,-0.0072 0.0021,-0.0146 0.0031,-0.0218 -0.0018,0.012 -0.0034,0.024 -0.0051,0.036l0 0zm0.0585 -0.4131c0.0038,-0.0262 0.0075,-0.0526 0.0113,-0.079 -0.002,0.0135 -0.0039,0.027 -0.0057,0.0405 -0.0018,0.0127 -0.0038,0.0256 -0.0056,0.0385l0 0zm0.1547 -1.0635c0.0025,-0.0171 0.0049,-0.034 0.0075,-0.051 0.0195,-0.1279 0.039,-0.2569 0.0588,-0.3865 -0.0066,0.0437 -0.0132,0.0874 -0.0197,0.1314 -0.0156,0.1016 -0.0312,0.2038 -0.0466,0.3061l0 0zm0.0841 -0.5552c0.014,-0.0913 0.0279,-0.1829 0.0422,-0.2747 0.0297,-0.1917 0.0607,-0.3848 0.0922,-0.5793 -0.0235,0.1471 -0.0471,0.294 -0.0706,0.4416 -0.0212,0.1373 -0.0426,0.2748 -0.0638,0.4125l0 -0.0001zm0.4262 -2.6061c0.0055,-0.0333 0.0112,-0.0667 0.0169,-0.1 -0.1863,-0.185 -0.382,-0.3604 -0.5859,-0.5279 -0.2052,-0.1674 -0.4185,-0.3267 -0.6385,-0.4779 -0.2201,-0.1512 -0.4496,-0.2943 -0.6845,-0.4293 -0.2362,-0.135 -0.4792,-0.2619 -0.7276,-0.382 -0.1083,-0.0517 -0.2179,-0.1017 -0.3283,-0.1506 2.4174,-8.2219 6.0353,-16.0654 9.8059,-23.2376 -0.0515,0.1392 -0.1029,0.278 -0.1531,0.4164 -0.0931,0.2524 -0.185,0.5035 -0.2754,0.7546 -0.0904,0.2498 -0.1796,0.4995 -0.2673,0.7479 -0.0891,0.2484 -0.1755,0.4955 -0.2619,0.7412 -0.0864,0.247 -0.1715,0.4914 -0.2552,0.7358 -0.0836,0.2443 -0.166,0.4873 -0.2484,0.729 -0.081,0.2429 -0.162,0.4833 -0.2416,0.7236 -0.0796,0.2403 -0.1593,0.4792 -0.2363,0.7182 -0.0783,0.2389 -0.1552,0.4752 -0.2308,0.7128 -0.0756,0.2362 -0.1512,0.4711 -0.2241,0.706 -0.0743,0.2349 -0.1472,0.4698 -0.2201,0.702 -0.0715,0.2336 -0.1431,0.4658 -0.2133,0.698 -0.0702,0.2308 -0.1404,0.4617 -0.2079,0.6925 -0.0688,0.2295 -0.1377,0.459 -0.2038,0.6872 -0.0675,0.2281 -0.1337,0.4563 -0.1985,0.6831 -0.0661,0.2281 -0.1296,0.4549 -0.1944,0.6804 -0.0634,0.2254 -0.1269,0.4509 -0.189,0.675 -0.0621,0.2254 -0.1229,0.4496 -0.1836,0.6723 -0.0607,0.2241 -0.1215,0.4469 -0.1809,0.6683 -0.0594,0.2227 -0.1174,0.4441 -0.1755,0.6655 -0.0581,0.2214 -0.1147,0.4428 -0.1715,0.6629 -0.0566,0.22 -0.112,0.4401 -0.1674,0.6601 -0.0553,0.2187 -0.1093,0.4388 -0.1633,0.6575 -0.054,0.2187 -0.1067,0.4374 -0.1593,0.6548 -0.0526,0.2186 -0.1053,0.436 -0.1566,0.6534 -0.0513,0.2173 -0.1012,0.4347 -0.1512,0.652 -0.0499,0.216 -0.0999,0.4334 -0.1485,0.6494 -0.0499,0.216 -0.0972,0.4333 -0.1458,0.6493 -0.0473,0.216 -0.0945,0.432 -0.1417,0.648 -0.0459,0.216 -0.0918,0.4307 -0.1378,0.6467 -0.0458,0.216 -0.0904,0.432 -0.135,0.6466 -0.0445,0.216 -0.089,0.432 -0.1323,0.6467 -0.0432,0.216 -0.0864,0.432 -0.1282,0.648 -0.0418,0.2146 -0.0837,0.4307 -0.1256,0.6467 -0.0404,0.2159 -0.0823,0.432 -0.1228,0.648 -0.0392,0.2159 -0.0797,0.432 -0.1188,0.6493 -0.0392,0.216 -0.0783,0.4334 -0.1161,0.6507 -0.0257,0.1413 -0.0506,0.2833 -0.075,0.4254l0 0z"/>
    </clipPath>
    <clipPath id="id5">
     <path d="M80.3347 64.394c-0.0138,-0.0127 -0.0276,-0.0264 -0.0414,-0.0403 -0.0735,-0.1722 -0.157,-0.3405 -0.249,-0.5041 -0.112,-0.1985 -0.2363,-0.3902 -0.3739,-0.5765 -0.1377,-0.1849 -0.2876,-0.3658 -0.4482,-0.54 -0.162,-0.1741 -0.3348,-0.3415 -0.5171,-0.5035 -0.0863,-0.0762 -0.1747,-0.1511 -0.2652,-0.2246 -1.1895,-1.9692 -1.9367,-4.444 -2.0622,-7.5015 -0.0294,-0.7178 -0.0446,-1.4344 -0.0459,-2.1501l0 -0.0341 0 -0.1401c0.0077,-6.5129 1.1482,-12.933 2.9725,-19.1376 0.1105,0.0489 0.22,0.099 0.3283,0.1506 0.2484,0.1201 0.4914,0.247 0.7276,0.382 0.2349,0.135 0.4644,0.2781 0.6845,0.4293 0.22,0.1512 0.4333,0.3105 0.6385,0.4779 0.2039,0.1674 0.3996,0.3429 0.5859,0.5279 -0.0057,0.0333 -0.0114,0.0667 -0.0169,0.1 -0.0417,0.2444 -0.0831,0.4875 -0.1235,0.7276 -0.0459,0.2726 -0.0904,0.5426 -0.1336,0.81 -0.0116,0.0717 -0.0231,0.143 -0.0347,0.2145 -0.0315,0.1945 -0.0625,0.3876 -0.0922,0.5793 -0.0143,0.0917 -0.0282,0.1834 -0.0422,0.2748 -0.006,0.0393 -0.012,0.0784 -0.0178,0.1176 -0.0198,0.1296 -0.0393,0.2586 -0.0588,0.3865 -0.0026,0.017 -0.005,0.0339 -0.0075,0.051 -0.0353,0.2392 -0.0705,0.4775 -0.1046,0.7131 -0.0131,0.0909 -0.0261,0.1812 -0.0388,0.2714 -0.0038,0.0264 -0.0076,0.0528 -0.0113,0.079 -0.018,0.1263 -0.0357,0.2521 -0.0534,0.3771 -0.001,0.0072 -0.0021,0.0146 -0.0031,0.0218 -0.0006,0.0048 -0.0014,0.0094 -0.002,0.0142 -0.0331,0.2435 -0.0661,0.4845 -0.0979,0.7243 -0.0324,0.2429 -0.0635,0.4846 -0.0945,0.7249 -0.0069,0.0532 -0.0137,0.1063 -0.0204,0.1593 -0.0176,0.1377 -0.0347,0.2746 -0.0512,0.4114 -0.0051,0.0407 -0.0099,0.0815 -0.0148,0.1223 -0.0014,0.0114 -0.0029,0.0232 -0.0042,0.0346 -0.0291,0.2321 -0.057,0.4631 -0.0836,0.6926 -0.027,0.2336 -0.054,0.4644 -0.0796,0.6953 -0.0256,0.2308 -0.0513,0.4603 -0.0756,0.6885 -0.0021,0.0202 -0.0044,0.0405 -0.0065,0.0607 -0.0222,0.2076 -0.0442,0.4142 -0.0651,0.6197 -0.0229,0.2268 -0.0445,0.4509 -0.0675,0.675 -0.0141,0.1468 -0.0277,0.2937 -0.0411,0.4402 -0.007,0.077 -0.0141,0.154 -0.021,0.2308 -0.0105,0.1075 -0.0203,0.2148 -0.0299,0.322 -0.0103,0.1147 -0.0203,0.2296 -0.0308,0.3448 -0.011,0.1286 -0.0219,0.2572 -0.0327,0.3856 -0.0077,0.0925 -0.0153,0.1851 -0.0227,0.2773 -0.0069,0.0801 -0.0135,0.1601 -0.0199,0.24 -0.0116,0.1413 -0.0228,0.2823 -0.0341,0.4229 -0.0145,0.1968 -0.0289,0.3948 -0.0435,0.5918 -0.0001,0.0019 -0.0003,0.0038 -0.0005,0.0056 -0.0014,0.0213 -0.0031,0.0428 -0.0046,0.0641 -0.0161,0.22 -0.0324,0.4414 -0.0472,0.6615 -0.0108,0.1609 -0.0216,0.322 -0.0318,0.483 -0.0039,0.0604 -0.0077,0.1207 -0.0114,0.1812 -0.011,0.1786 -0.0218,0.3582 -0.0327,0.5371 -0.0026,0.0429 -0.0053,0.0857 -0.0079,0.1285 -0.0019,0.035 -0.0038,0.0703 -0.0058,0.1054 -0.007,0.1239 -0.0141,0.2481 -0.0212,0.3724 -0.0037,0.0644 -0.0073,0.1287 -0.0108,0.1931 -0.0008,0.0184 -0.0017,0.0369 -0.0026,0.0553 -0.0069,0.1388 -0.0141,0.278 -0.021,0.4173 -0.0035,0.0676 -0.0068,0.1349 -0.0101,0.2024 -0.0108,0.2254 -0.0216,0.4523 -0.0311,0.6804 -0.0014,0.037 -0.0031,0.0743 -0.0046,0.1113 -0.0066,0.1596 -0.0132,0.32 -0.0198,0.4807 -0.0012,0.0323 -0.0026,0.0642 -0.0039,0.0965 -0.0004,0.0134 -0.001,0.0268 -0.0015,0.0402 -0.0054,0.152 -0.0112,0.3045 -0.0169,0.4581 -0.0026,0.0665 -0.005,0.1329 -0.0073,0.1996 -0.0067,0.2336 -0.0148,0.4685 -0.0216,0.7061 -0.0058,0.2042 -0.0106,0.4113 -0.0153,0.6189 -0.0007,0.0327 -0.0015,0.0653 -0.0022,0.098 -0.0036,0.1585 -0.007,0.3178 -0.0106,0.4776 -0.0018,0.0837 -0.0038,0.1674 -0.0056,0.2514 -0.004,0.2457 -0.0081,0.4927 -0.0108,0.7425 -0.0003,0.025 -0.0006,0.0501 -0.0007,0.0751 -0.0017,0.1473 -0.0034,0.2954 -0.0048,0.4445 -0.0009,0.079 -0.0017,0.1583 -0.0026,0.2377 -0.0014,0.2538 -0.0027,0.5117 -0.0027,0.7722 0,0.0648 0,0.1301 0,0.1955 0,0.1958 0.0003,0.3936 0.0013,0.5929 0,0.0987 0.0003,0.1981 0.0011,0.2976 0.0005,0.081 0.0011,0.1622 0.0018,0.2435 0.0008,0.0885 0.0017,0.1773 0.0025,0.2663 0.0004,0.0574 0.0008,0.1149 0.0013,0.1726 0.0018,0.2162 0.005,0.4343 0.0082,0.6549 0.0041,0.2781 0.0095,0.5616 0.0162,0.8479 0.0044,0.2275 0.0104,0.457 0.0167,0.6893 0.0016,0.0599 0.0033,0.1197 0.0049,0.1801 0.0041,0.1462 0.0081,0.2938 0.0124,0.4423 0.0044,0.1491 0.0092,0.2993 0.0146,0.45 0.0005,0.0136 0.0009,0.0273 0.0015,0.0409 0.0042,0.117 0.0083,0.2347 0.0126,0.3527 0.0056,0.1517 0.0111,0.3045 0.0171,0.4586l0 0z"/>
    </clipPath>
    <clipPath id="id6">
     <path d="M13.4767 52.172l0 0c0.084,-0.0768 0.1686,-0.1518 0.2538,-0.2254 0.1998,-0.1729 0.4009,-0.3389 0.6061,-0.4996 0.2039,-0.1606 0.4091,-0.3158 0.617,-0.4644 0.2079,-0.1485 0.4171,-0.2916 0.6291,-0.4292 0.2106,-0.1364 0.4225,-0.2687 0.6358,-0.3943 0.2133,-0.1255 0.428,-0.2457 0.644,-0.3604 0.216,-0.1148 0.432,-0.2241 0.648,-0.3281 0.2173,-0.1026 0.4347,-0.2011 0.6534,-0.2943 0.2174,-0.0931 0.436,-0.1809 0.6534,-0.2632 0.2187,-0.0837 0.4374,-0.1607 0.6561,-0.2322 0.2187,-0.0729 0.436,-0.1404 0.6548,-0.2025 0.2173,-0.0621 0.4347,-0.1188 0.652,-0.1715 0.2174,-0.0527 0.4334,-0.0999 0.6494,-0.1431 0.2146,-0.0418 0.4306,-0.081 0.6439,-0.1134 0.2133,-0.0338 0.4266,-0.0621 0.6386,-0.0864 0.1441,-0.0156 0.2877,-0.0298 0.4306,-0.0417 0,0.0012 0,0.0012 0,0.0012 -3.3277,0.2795 -6.8256,1.6889 -9.666,4.2485z"/>
    </clipPath>
    <clipPath id="id7">
     <path d="M9.9384 30.1012c-1.0992,-8.5054 -1.7743,-16.3367 -1.8132,-22.1947 4.8398,-4.0339 10.742,-6.3748 16.0584,-6.7839 -0.8616,7.2665 -1.4246,14.9847 -1.5732,23.5965 -0.069,0.0047 -0.1382,0.0099 -0.2075,0.0153 -0.2268,0.0188 -0.4536,0.0418 -0.6831,0.0688 -0.2295,0.027 -0.459,0.058 -0.6912,0.0945 -0.2322,0.0364 -0.4657,0.0769 -0.7006,0.1215 -0.235,0.0459 -0.4712,0.0958 -0.7088,0.1498 -0.2362,0.054 -0.4752,0.1134 -0.7142,0.1782 -0.2389,0.0635 -0.4792,0.1324 -0.7195,0.2052 -0.2403,0.0729 -0.482,0.1513 -0.725,0.235 -0.2416,0.0823 -0.4832,0.1714 -0.7263,0.2632 -0.243,0.0931 -0.486,0.1917 -0.729,0.2943 -0.243,0.1026 -0.4873,0.2106 -0.7303,0.324 -0.243,0.1134 -0.486,0.2309 -0.729,0.3551 -0.243,0.1228 -0.4847,0.2511 -0.7264,0.3847 -0.2416,0.135 -0.4832,0.2741 -0.7236,0.4185 -0.2402,0.1445 -0.4806,0.2943 -0.7182,0.4496 -0.2389,0.1552 -0.4765,0.3159 -0.7128,0.4819 -0.2362,0.1661 -0.4698,0.3389 -0.7033,0.5157 -0.2336,0.1782 -0.4644,0.3618 -0.6939,0.5508 -0.1102,0.0908 -0.22,0.1828 -0.3293,0.276l0 0z"/>
    </clipPath>
    <clipPath id="id8">
     <path d="M13.4767 52.172c-1.3947,-7.3201 -2.6159,-14.9326 -3.5383,-22.0708 0.1093,-0.0932 0.2191,-0.1852 0.3293,-0.276 0.2295,-0.189 0.4603,-0.3726 0.6939,-0.5508 0.2335,-0.1768 0.4671,-0.3496 0.7033,-0.5157 0.2363,-0.166 0.4739,-0.3267 0.7128,-0.4819 0.2376,-0.1553 0.478,-0.3051 0.7182,-0.4496 0.2404,-0.1445 0.482,-0.2835 0.7236,-0.4185 0.2417,-0.1336 0.4834,-0.2619 0.7264,-0.3847 0.243,-0.1243 0.486,-0.2417 0.729,-0.3551 0.243,-0.1134 0.4873,-0.2214 0.7303,-0.324 0.243,-0.1026 0.486,-0.2011 0.729,-0.2943 0.2431,-0.0918 0.4847,-0.1809 0.7263,-0.2632 0.243,-0.0837 0.4847,-0.162 0.725,-0.235 0.2403,-0.0729 0.4806,-0.1417 0.7195,-0.2052 0.239,-0.0648 0.478,-0.1242 0.7142,-0.1782 0.2376,-0.054 0.4738,-0.1039 0.7088,-0.1498 0.2349,-0.0446 0.4684,-0.085 0.7006,-0.1215 0.2322,-0.0365 0.4617,-0.0675 0.6912,-0.0945 0.2295,-0.027 0.4563,-0.05 0.6831,-0.0688 0.0693,-0.0055 0.1385,-0.0105 0.2075,-0.0153 -0.0256,1.4859 -0.039,2.9994 -0.0393,4.5406 -0.0015,5.7767 0.1786,11.9583 0.5716,18.6638 -0.1429,0.0107 -0.2865,0.0249 -0.4306,0.0405 -0.212,0.0243 -0.4253,0.0526 -0.6386,0.0864 -0.2133,0.0324 -0.4293,0.0716 -0.6439,0.1134 -0.216,0.0432 -0.432,0.0904 -0.6494,0.1431 -0.2173,0.0527 -0.4347,0.1094 -0.652,0.1715 -0.2188,0.0621 -0.4361,0.1296 -0.6548,0.2025 -0.2187,0.0715 -0.4374,0.1485 -0.6561,0.2322 -0.2174,0.0823 -0.436,0.1701 -0.6534,0.2632 -0.2187,0.0932 -0.4361,0.1917 -0.6534,0.2943 -0.216,0.104 -0.432,0.2133 -0.648,0.3281 -0.216,0.1147 -0.4307,0.2349 -0.644,0.3604 -0.2133,0.1256 -0.4252,0.2579 -0.6358,0.3943 -0.212,0.1376 -0.4212,0.2807 -0.6291,0.4292 -0.2079,0.1485 -0.4131,0.3038 -0.617,0.4644 -0.2052,0.1607 -0.4063,0.3268 -0.6061,0.4996 -0.0852,0.0736 -0.1698,0.1486 -0.254,0.2245l0.0002 0.0009z"/>
    </clipPath>
    <clipPath id="id9">
     <path d="M60.0199 60.0018c0.0033,-0.001 0.0067,-0.002 0.01,-0.003 -0.0034,0.001 -0.0064,0.0019 -0.01,0.003l0 0zm0.0959 -0.0281c0.0172,-0.005 0.0346,-0.01 0.0518,-0.015 -0.0171,0.0049 -0.0346,0.0101 -0.0519,0.015l0.0001 0zm0.101 -0.0291c0.0148,-0.0042 0.0296,-0.0085 0.0444,-0.0127 0.013,-0.0038 0.026,-0.0073 0.0389,-0.011 -0.0277,0.008 -0.0555,0.0158 -0.0833,0.0237l0 0zm0.1391 -0.0393c0.0135,-0.0037 0.0269,-0.0075 0.0403,-0.0112 -0.0134,0.0037 -0.027,0.0075 -0.0403,0.0112l0 0zm-3.5937 -44.4148c0.0003,-0.0007 0.0009,-0.0017 0.0012,-0.0024 1.9521,-1.1475 3.8624,-2.3584 5.612,-3.456 1.6301,-1.0236 3.322,-1.9299 5.0433,-2.7018 -0.3108,0.1402 -0.6189,0.283 -0.9258,0.4297 -0.3092,0.1485 -0.6183,0.3011 -0.9234,0.4577 -0.3065,0.1565 -0.6102,0.3172 -0.9113,0.4806 -0.3024,0.1633 -0.6007,0.3307 -0.8977,0.5022 -0.297,0.1701 -0.5913,0.3442 -0.8829,0.5224 -0.2916,0.1769 -0.5603,0.3456 -0.775,0.4806 -0.2146,0.1364 -0.432,0.2728 -0.6506,0.4091 -0.2187,0.1377 -0.4388,0.2754 -0.6602,0.4145 -0.2214,0.139 -0.4442,0.278 -0.6669,0.4171 -0.2241,0.1404 -0.4496,0.2795 -0.675,0.4199 -0.2254,0.139 -0.4523,0.2794 -0.6791,0.4185 -0.2268,0.139 -0.4549,0.2781 -0.6831,0.4158 -0.2294,0.139 -0.4577,0.2767 -0.6871,0.4131 -0.212,0.1267 -0.4253,0.2534 -0.6384,0.379l0 0zm10.6751 -6.1686c0.6101,-0.2731 1.224,-0.5294 1.8399,-0.768 -0.3007,0.1172 -0.6013,0.238 -0.8997,0.3624 -0.3147,0.1312 -0.6281,0.2664 -0.9402,0.4057l0 -0.0001zm1.946 -0.8089c0.2175,-0.0835 0.4352,-0.1648 0.6532,-0.2439 -0.2181,0.0794 -0.4359,0.161 -0.6532,0.2439l0 0zm3.1621 -1.0513c0.3509,-0.0985 0.7012,-0.1908 1.0516,-0.277 -0.1173,0.0289 -0.2345,0.0584 -0.3513,0.0886 -0.2343,0.0602 -0.4673,0.1233 -0.7003,0.1884l0 0zm1.0993 -0.2887c0.0198,-0.0048 0.0394,-0.0096 0.0592,-0.0144 -0.0196,0.0048 -0.0395,0.0096 -0.0593,0.0144l0.0001 0z"/>
    </clipPath>
    <clipPath id="id10">
     <path d="M53.0528 37.9222c-0.0736,-1.2578 -0.1097,-2.5113 -0.108,-3.752 0.0088,-7.2527 1.2979,-14.0638 3.8174,-18.6797 0.2131,-0.1257 0.4264,-0.2523 0.6384,-0.379 0.2294,-0.1364 0.4576,-0.2741 0.6871,-0.4131 0.2282,-0.1378 0.4563,-0.2768 0.6831,-0.4158 0.2268,-0.1391 0.4536,-0.2795 0.6791,-0.4185 0.2254,-0.1405 0.4509,-0.2795 0.675,-0.4199 0.2227,-0.1391 0.4455,-0.2781 0.6669,-0.4171 0.2214,-0.1391 0.4414,-0.2768 0.6602,-0.4145 0.2186,-0.1364 0.436,-0.2727 0.6506,-0.4091 0.2147,-0.135 0.4834,-0.3037 0.775,-0.4806 0.2916,-0.1782 0.5859,-0.3523 0.8829,-0.5224 0.297,-0.1715 0.5953,-0.3389 0.8977,-0.5022 0.3011,-0.1634 0.6048,-0.324 0.9113,-0.4806 0.3051,-0.1567 0.6142,-0.3092 0.9234,-0.4577 0.3069,-0.1467 0.615,-0.2895 0.9258,-0.4297 0.0063,-0.0028 0.0123,-0.0055 0.0186,-0.0083 0.3121,-0.1393 0.6255,-0.2745 0.9402,-0.4057 0.2984,-0.1244 0.5989,-0.2452 0.8997,-0.3624 0.0356,-0.0138 0.0705,-0.0272 0.1061,-0.0409 0.2173,-0.0829 0.4351,-0.1645 0.6532,-0.2439 0.8342,-0.3025 1.6722,-0.5724 2.5089,-0.8074 0.233,-0.0652 0.4659,-0.1282 0.7003,-0.1884 0.1168,-0.0302 0.234,-0.0597 0.3513,-0.0886 0.0159,-0.0039 0.0317,-0.0078 0.0476,-0.0117 0.0199,-0.0048 0.0397,-0.0096 0.0593,-0.0144 1.9347,-0.4689 3.8577,-0.7468 5.7248,-0.8101 -9.1264,4.6202 -11.9005,15.0215 -11.9522,25.7625 -0.2084,0.0354 -0.4167,0.073 -0.6259,0.1132 -0.328,0.0634 -0.6561,0.1323 -0.9841,0.2065 -0.3267,0.0743 -0.6548,0.154 -0.9801,0.239 -0.3267,0.0837 -0.6521,0.1742 -0.9761,0.27 -0.324,0.0945 -0.6466,0.1958 -0.9679,0.3011 -0.3214,0.1052 -0.6413,0.216 -0.9599,0.3321 -0.3173,0.1147 -0.6345,0.2349 -0.9477,0.3604 -0.3146,0.1255 -0.6264,0.2565 -0.9369,0.3915 -0.3092,0.135 -0.617,0.2741 -0.9221,0.4185 -0.3037,0.1445 -0.6142,0.2998 -0.8748,0.428 -0.2605,0.1282 -0.5211,0.2592 -0.7803,0.3942 -0.2592,0.135 -0.4779,0.2565 -0.7007,0.378 -0.2213,0.1215 -0.4454,0.2444 -0.6709,0.3658 -0.2254,0.1229 -0.4536,0.2444 -0.6818,0.3672 -0.2295,0.1215 -0.4603,0.2444 -0.6912,0.3659 -0.2321,0.1215 -0.4644,0.2417 -0.6993,0.3618 -0.2335,0.1202 -0.4684,0.2403 -0.7047,0.3591 -0.106,0.053 -0.2125,0.1059 -0.3193,0.1589l0 0z"/>
    </clipPath>
    <clipPath id="id11">
     <path d="M59.165 60.2707c-3.6255,-6.0842 -5.6409,-14.3008 -6.1122,-22.3485 0.1068,-0.053 0.2133,-0.1059 0.3193,-0.1589 0.2363,-0.1188 0.4712,-0.2389 0.7047,-0.3591 0.2349,-0.1202 0.4671,-0.2403 0.6993,-0.3618 0.2309,-0.1215 0.4617,-0.2443 0.6912,-0.3659 0.2282,-0.1228 0.4563,-0.2443 0.6818,-0.3672 0.2255,-0.1215 0.4495,-0.2443 0.6709,-0.3658 0.2228,-0.1215 0.4415,-0.243 0.7007,-0.378 0.2592,-0.135 0.5197,-0.266 0.7803,-0.3942 0.2606,-0.1283 0.5711,-0.2835 0.8748,-0.428 0.3051,-0.1445 0.6129,-0.2835 0.9221,-0.4185 0.3105,-0.135 0.6223,-0.2659 0.9369,-0.3915 0.3132,-0.1255 0.6304,-0.2457 0.9477,-0.3604 0.3186,-0.1161 0.6385,-0.2268 0.9599,-0.3321 0.3213,-0.1054 0.6439,-0.2066 0.9679,-0.3011 0.324,-0.0959 0.6494,-0.1863 0.9761,-0.27 0.3253,-0.0851 0.6534,-0.1647 0.9801,-0.239 0.328,-0.0742 0.6561,-0.143 0.9841,-0.2065 0.2092,-0.0402 0.4175,-0.0778 0.6259,-0.1132 -0.0006,0.1056 -0.0008,0.213 -0.0008,0.3187 0.0014,10.2753 2.4587,20.8105 4.1999,26.8474 -1.3194,-0.225 -2.7218,-0.3422 -4.1645,-0.3422 -2.33,0 -4.7638,0.3062 -7.1149,0.9592 -0.0134,0.0037 -0.0268,0.0075 -0.0403,0.0112 -0.0184,0.0051 -0.0372,0.0104 -0.0558,0.0156 -0.0129,0.0037 -0.026,0.0072 -0.0389,0.011 -0.0148,0.0041 -0.0296,0.0085 -0.0444,0.0127 -0.0165,0.0047 -0.0327,0.0093 -0.0492,0.0141 -0.0172,0.0049 -0.0346,0.0101 -0.0519,0.015 -0.0285,0.0083 -0.0572,0.0167 -0.0858,0.0251 -0.0033,0.001 -0.0067,0.0021 -0.01,0.003 -0.2863,0.0844 -0.5717,0.174 -0.8549,0.2689z"/>
    </clipPath>
 </defs>
 <g id="Слой_x0020_1">
  <metadata id="CorelCorpID_0Corel-Layer"/>
  <g id="_94603408">
   <path id="_94955608" class="fil0" d="M2.011 14.9576c0.1863,-0.3065 0.378,-0.6075 0.5738,-0.9032 0.1957,-0.2957 0.3968,-0.5859 0.6007,-0.8694 0.2052,-0.2835 0.4131,-0.5629 0.6264,-0.8357 0.212,-0.2727 0.428,-0.54 0.648,-0.8019 0.2201,-0.2619 0.4442,-0.517 0.671,-0.7681 0.2254,-0.2511 0.4563,-0.4968 0.6885,-0.7371 0.2322,-0.2404 0.4684,-0.4753 0.706,-0.7047 0.2376,-0.2282 0.4793,-0.4536 0.721,-0.6724 0.2429,-0.2187 0.4887,-0.432 0.7357,-0.6412 0.247,-0.2079 0.4968,-0.4118 0.7479,-0.6102 0.2511,-0.1985 0.5036,-0.3915 0.7587,-0.5805 0.2538,-0.1877 0.5103,-0.3713 0.7668,-0.5495 0.2565,-0.1795 0.5157,-0.3523 0.7749,-0.5211 0.2592,-0.1687 0.5198,-0.3321 0.7803,-0.4914 0.262,-0.1579 0.5238,-0.3132 0.7871,-0.4617 0.2619,-0.1498 0.5251,-0.2943 0.7897,-0.4333 0.2633,-0.1405 0.5279,-0.2754 0.7912,-0.4064 0.2646,-0.1296 0.5292,-0.2565 0.7938,-0.3766 0.2646,-0.1215 0.5292,-0.239 0.7924,-0.351 0.2646,-0.1121 0.5292,-0.2201 0.7925,-0.3227 0.2646,-0.1026 0.5279,-0.2025 0.7911,-0.2957 0.2619,-0.0945 0.5251,-0.1849 0.7857,-0.27 0.2619,-0.085 0.5238,-0.166 0.783,-0.243 0.2606,-0.0769 0.5198,-0.1498 0.7776,-0.2173 0.2592,-0.0689 0.5157,-0.1323 0.7722,-0.1917 0.2565,-0.0594 0.5116,-0.1148 0.7641,-0.166 0.2538,-0.0514 0.5063,-0.0986 0.7574,-0.1418 0.2511,-0.0419 0.5008,-0.081 0.7492,-0.1161 0.2484,-0.0338 0.4941,-0.0648 0.7385,-0.0905 0.2457,-0.027 0.4887,-0.0499 0.729,-0.0674 0.2416,-0.019 0.482,-0.0324 0.7182,-0.0432 0.2376,-0.0109 0.4738,-0.0162 0.7074,-0.019 0.2336,-0.0027 0.4644,-0.0013 0.6939,0.0041 0.2295,0.0054 0.4577,0.0149 0.6818,0.0283 0.2254,0.0135 0.4482,0.0311 0.6682,0.0514 0.2201,0.0215 0.4388,0.0458 0.6534,0.0756 0.216,0.0283 0.428,0.0607 0.6386,0.0972 0.2106,0.0364 0.4185,0.0769 0.6237,0.1201 0.2052,0.0445 0.4077,0.0918 0.6075,0.1445 0.1998,0.0512 0.3956,0.1066 0.59,0.1646 0.1944,0.0594 0.386,0.1229 0.5737,0.189 0.1877,0.0662 0.3726,0.1364 0.5549,0.2106 0.1822,0.0729 0.3618,0.1512 0.5372,0.2322 0.1769,0.081 0.3497,0.1661 0.5185,0.2552 0.1701,0.0877 0.3361,0.1809 0.4995,0.2768 0.1633,0.0958 0.3226,0.1957 0.4792,0.2983 0.1553,0.1026 0.3092,0.2106 0.4577,0.32 0.1498,0.1106 0.2956,0.2254 0.4374,0.3429 0.1431,0.1174 0.2808,0.2389 0.4158,0.3631 0.135,0.1256 0.2673,0.2538 0.3942,0.3861 0.1283,0.1323 0.2511,0.2687 0.3713,0.4077 0.1201,0.139 0.2362,0.2822 0.3482,0.4293 0.1121,0.1458 0.2214,0.297 0.3254,0.4509 0.104,0.1539 0.2038,0.3105 0.301,0.4712 0.0959,0.162 0.1877,0.3267 0.2755,0.4941 0.0877,0.1687 0.1714,0.3402 0.2511,0.5157 0.0796,0.1755 0.1539,0.355 0.2254,0.5386 0.0702,0.1823 0.1364,0.3686 0.1985,0.559 0.0621,0.1903 0.1188,0.3834 0.1728,0.5804 0.0526,0.1971 0.1012,0.3983 0.1444,0.6035 0.0432,0.2038 0.0824,0.4131 0.1175,0.6251 0.0337,0.2119 0.0634,0.4279 0.0877,0.6466 0.0257,0.2201 0.0446,0.4428 0.0594,0.6696 0.0162,0.2268 0.023,0.4078 0.0311,0.7088 0.0081,0.301 0.0229,0.5926 0.0432,0.8734 0.0189,0.2808 0.0445,0.5522 0.0756,0.8141 0.0297,0.2619 0.0661,0.513 0.1066,0.756 0.0419,0.243 0.0878,0.4766 0.1391,0.702 0.0513,0.2241 0.108,0.4401 0.1687,0.6467 0.0608,0.2065 0.1269,0.405 0.1985,0.594 0.0702,0.189 0.1458,0.3699 0.2268,0.5427 0.0796,0.1728 0.1647,0.3375 0.2538,0.4941 0.0891,0.1552 0.1823,0.3037 0.2794,0.4441 0.0986,0.1404 0.1999,0.2727 0.3065,0.3983 0.1066,0.1242 0.2174,0.2417 0.3307,0.3523 0.1148,0.1094 0.2336,0.212 0.3551,0.3078 0.1228,0.0959 0.2484,0.1836 0.3794,0.2646 0.1295,0.0824 0.2632,0.1566 0.3996,0.2242 0.1377,0.0674 0.2781,0.1282 0.4225,0.1836 0.1445,0.0539 0.2916,0.1026 0.4428,0.143 0.1512,0.0419 0.3051,0.0784 0.4631,0.1067 0.1579,0.0297 0.3185,0.0527 0.4819,0.0702 0.1634,0.0175 0.3308,0.0297 0.5009,0.0351 0.1688,0.0054 0.3415,0.0054 0.517,0 0.1756,-0.0054 0.3537,-0.0148 0.5346,-0.031 0.181,-0.0163 0.3645,-0.0378 0.5508,-0.0635 0.1863,-0.027 0.374,-0.0581 0.5657,-0.0945 0.1904,-0.0365 0.3833,-0.077 0.5791,-0.1228 0.1957,-0.0446 0.3942,-0.0959 0.594,-0.1499 0.1998,-0.0554 0.4009,-0.1134 0.6061,-0.1769 0.2039,-0.0634 0.4091,-0.1309 0.617,-0.2024 0.2079,-0.0716 0.4171,-0.1472 0.6291,-0.2255 0.2106,-0.0797 0.4239,-0.1633 0.6386,-0.2497 0.2146,-0.0865 0.4306,-0.1769 0.648,-0.2701 0.2173,-0.0931 0.436,-0.1903 0.6561,-0.2902 0.22,-0.0999 0.4414,-0.2025 0.6642,-0.3078 0.2214,-0.1067 0.4455,-0.2147 0.6696,-0.3267 0.2241,-0.1121 0.4495,-0.2255 0.6763,-0.3416 0.2255,-0.1174 0.4523,-0.2362 0.6804,-0.3577 0.2269,-0.1202 0.455,-0.2444 0.6831,-0.3686 0.2282,-0.1255 0.4577,-0.2524 0.6872,-0.382 0.2281,-0.1283 0.4576,-0.2592 0.6872,-0.3915 0.2294,-0.1324 0.4603,-0.266 0.6898,-0.3996 0.2295,-0.135 0.459,-0.2714 0.6872,-0.4077 0.2294,-0.1364 0.4576,-0.2741 0.6871,-0.4131 0.2282,-0.1378 0.4563,-0.2768 0.6831,-0.4158 0.2268,-0.1391 0.4536,-0.2795 0.6791,-0.4185 0.2254,-0.1405 0.4509,-0.2795 0.675,-0.4199 0.2227,-0.1391 0.4455,-0.2781 0.6669,-0.4171 0.2214,-0.1391 0.4414,-0.2768 0.6602,-0.4145 0.2186,-0.1364 0.436,-0.2727 0.6506,-0.4091 0.2147,-0.135 0.4834,-0.3037 0.775,-0.4806 0.2916,-0.1782 0.5859,-0.3523 0.8829,-0.5224 0.297,-0.1715 0.5953,-0.3389 0.8977,-0.5022 0.3011,-0.1634 0.6048,-0.324 0.9113,-0.4806 0.3051,-0.1567 0.6142,-0.3092 0.9234,-0.4577 0.3105,-0.1485 0.6223,-0.2929 0.9369,-0.4347 0.3145,-0.1404 0.6305,-0.2768 0.9477,-0.409 0.3172,-0.1324 0.6372,-0.2606 0.9572,-0.3848 0.3213,-0.1229 0.6439,-0.243 0.9666,-0.3578 0.324,-0.1147 0.6493,-0.224 0.9747,-0.3294 0.3267,-0.1053 0.6534,-0.2052 0.9815,-0.301 0.3294,-0.0945 0.6574,-0.185 0.9882,-0.27 0.3294,-0.0851 0.6601,-0.1647 0.9922,-0.2403 0.3308,-0.0743 0.6629,-0.1431 0.995,-0.2066 0.3321,-0.0621 0.6642,-0.1201 0.9963,-0.1714 0.3334,-0.0527 0.6655,-0.0986 0.999,-0.1377 0.3321,-0.0392 0.6642,-0.0729 0.9963,-0.0999 0.3321,-0.027 0.6642,-0.0473 0.9949,-0.0621 0.3308,-0.0135 0.6616,-0.0216 0.991,-0.0216 0.3294,0 0.6588,0.0054 0.9855,0.0202 0.328,0.0135 0.6534,0.0338 0.9787,0.0621 0.3254,0.0284 0.648,0.0648 0.9694,0.108 0.3226,0.0432 0.6426,0.0945 0.9598,0.1539 0.3172,0.0594 0.6332,0.1269 0.9464,0.2039 0.3145,0.0756 0.625,0.1593 0.9328,0.2524 0.3092,0.0932 0.6143,0.1944 0.9167,0.3065 0.3024,0.1107 0.6021,0.2295 0.8977,0.3591 0.2957,0.1296 0.5886,0.2687 0.8762,0.4158 0.2888,0.1485 0.5736,0.3078 0.8544,0.4751l0 0.0005c-0.0972,0.2576 -0.1943,0.5128 -0.2888,0.7677 -0.0958,0.2552 -0.1903,0.509 -0.2821,0.7615 -0.0931,0.2524 -0.185,0.5035 -0.2754,0.7546 -0.0904,0.2498 -0.1796,0.4995 -0.2673,0.7479 -0.0891,0.2484 -0.1755,0.4955 -0.2619,0.7412 -0.0864,0.247 -0.1715,0.4914 -0.2552,0.7358 -0.0836,0.2443 -0.166,0.4873 -0.2484,0.729 -0.081,0.2429 -0.162,0.4833 -0.2416,0.7236 -0.0796,0.2403 -0.1593,0.4792 -0.2363,0.7182 -0.0783,0.2389 -0.1552,0.4752 -0.2308,0.7128 -0.0756,0.2362 -0.1512,0.4711 -0.2241,0.706 -0.0743,0.2349 -0.1472,0.4698 -0.2201,0.702 -0.0715,0.2336 -0.1431,0.4658 -0.2133,0.698 -0.0702,0.2308 -0.1404,0.4617 -0.2079,0.6925 -0.0688,0.2295 -0.1377,0.459 -0.2038,0.6872 -0.0675,0.2281 -0.1337,0.4563 -0.1985,0.6831 -0.0661,0.2281 -0.1296,0.4549 -0.1944,0.6804 -0.0634,0.2254 -0.1269,0.4509 -0.189,0.675 -0.0621,0.2254 -0.1229,0.4496 -0.1836,0.6723 -0.0607,0.2241 -0.1215,0.4469 -0.1809,0.6683 -0.0594,0.2227 -0.1174,0.4441 -0.1755,0.6655 -0.0581,0.2214 -0.1147,0.4428 -0.1715,0.6629 -0.0566,0.22 -0.112,0.4401 -0.1674,0.6601 -0.0553,0.2187 -0.1093,0.4388 -0.1633,0.6575 -0.054,0.2187 -0.1067,0.4374 -0.1593,0.6548 -0.0526,0.2186 -0.1053,0.436 -0.1566,0.6534 -0.0513,0.2173 -0.1012,0.4347 -0.1512,0.652 -0.0499,0.216 -0.0999,0.4334 -0.1485,0.6494 -0.0499,0.216 -0.0972,0.4333 -0.1458,0.6493 -0.0473,0.216 -0.0945,0.432 -0.1417,0.648 -0.0459,0.216 -0.0918,0.4307 -0.1378,0.6467 -0.0458,0.216 -0.0904,0.432 -0.135,0.6466 -0.0445,0.216 -0.089,0.432 -0.1323,0.6467 -0.0432,0.216 -0.0864,0.432 -0.1282,0.648 -0.0418,0.2146 -0.0837,0.4307 -0.1256,0.6467 -0.0404,0.2159 -0.0823,0.432 -0.1228,0.648 -0.0392,0.2159 -0.0797,0.432 -0.1188,0.6493 -0.0392,0.216 -0.0783,0.4334 -0.1161,0.6507 -0.0391,0.216 -0.077,0.4334 -0.1134,0.6508 -0.0378,0.2186 -0.0743,0.436 -0.1107,0.6547 -0.0364,0.2173 -0.0729,0.4361 -0.108,0.6547 -0.0351,0.2201 -0.0702,0.4388 -0.1053,0.6589 -0.0337,0.22 -0.0689,0.4401 -0.1013,0.6615 -0.0337,0.22 -0.0675,0.4414 -0.0999,0.6642 -0.0324,0.2213 -0.0648,0.4441 -0.0958,0.6669 -0.0324,0.2227 -0.0635,0.4468 -0.0945,0.6709 -0.0297,0.2255 -0.0608,0.4496 -0.0905,0.675 -0.0297,0.2268 -0.0594,0.4523 -0.0877,0.6804 -0.0284,0.2269 -0.0567,0.455 -0.0851,0.6845 -0.0283,0.2282 -0.0553,0.4577 -0.0823,0.6885 -0.027,0.2309 -0.0527,0.4617 -0.0797,0.6939 -0.0256,0.2336 -0.0513,0.4658 -0.0756,0.7007 -0.0243,0.2349 -0.0499,0.4698 -0.0729,0.706 -0.0242,0.2363 -0.0473,0.4739 -0.0702,0.7115 -0.0229,0.2389 -0.0459,0.4792 -0.0675,0.7196 -0.0216,0.2402 -0.0432,0.4832 -0.0634,0.7262 -0.0216,0.243 -0.0419,0.4874 -0.0608,0.7331 -0.0202,0.2457 -0.0392,0.4927 -0.0567,0.7412 -0.0189,0.2484 -0.0365,0.4968 -0.054,0.7479 -0.0175,0.2511 -0.0337,0.5035 -0.0513,0.7573 -0.0148,0.2538 -0.031,0.5103 -0.0459,0.7668 -0.0149,0.2565 -0.0297,0.5144 -0.0432,0.7749 -0.0135,0.2606 -0.0257,0.5212 -0.0378,0.7844 -0.0121,0.2632 -0.0243,0.5278 -0.0351,0.7952 -0.0108,0.2659 -0.0216,0.5346 -0.031,0.8045 -0.0095,0.27 -0.0176,0.5414 -0.0257,0.8155 -0.0081,0.274 -0.0149,0.5494 -0.0216,0.8262 -0.0067,0.2781 -0.0121,0.5575 -0.0175,0.8383 -0.0041,0.2808 -0.0082,0.5643 -0.0122,0.8492 -0.0027,0.2862 -0.0054,0.5724 -0.0068,0.8626 -0.0013,0.289 -0.0013,0.5806 -0.0013,0.8748 0,0.293 0.0013,0.5886 0.0041,0.887 0.0013,0.2984 0.0054,0.5981 0.0094,0.9018 0.0041,0.3024 0.0094,0.6062 0.0162,0.914 0.0054,0.3078 0.0135,0.6169 0.0216,0.9288 0.0081,0.3132 0.0176,0.6278 0.0284,0.945 0.0108,0.3172 0.0229,0.6358 0.035,0.9585 -0.0836,-0.2092 -0.1822,-0.4131 -0.2929,-0.6102 -0.112,-0.1985 -0.2363,-0.3902 -0.3739,-0.5765 -0.1377,-0.1849 -0.2876,-0.3658 -0.4482,-0.54 -0.162,-0.1741 -0.3348,-0.3415 -0.5171,-0.5035 -0.1836,-0.162 -0.3767,-0.3186 -0.5792,-0.4685 -0.2038,-0.1512 -0.4158,-0.2943 -0.6372,-0.4333 -0.2214,-0.1377 -0.4522,-0.27 -0.6898,-0.3969 -0.2376,-0.1256 -0.4833,-0.2471 -0.7358,-0.3605 -0.2524,-0.1147 -0.513,-0.2227 -0.7789,-0.3253 -0.266,-0.1026 -0.5387,-0.1985 -0.8168,-0.2889 -0.2781,-0.0905 -0.5616,-0.1742 -0.8505,-0.2525 -0.2889,-0.0783 -0.5818,-0.1512 -0.8788,-0.2174 -0.2984,-0.0661 -0.5994,-0.1268 -0.9059,-0.1808 -0.3051,-0.054 -0.6143,-0.1026 -0.9261,-0.1458 -0.3119,-0.0419 -0.6264,-0.0784 -0.9437,-0.108 -0.3172,-0.0311 -0.6372,-0.0554 -0.9585,-0.0743 -0.3213,-0.0175 -0.644,-0.0297 -0.9693,-0.0365 -0.324,-0.0067 -0.6493,-0.0067 -0.9761,-0.0013 -0.3267,0.0054 -0.6534,0.0175 -0.9814,0.0337 -0.3267,0.0176 -0.6548,0.0419 -0.9815,0.0716 -0.328,0.0284 -0.6547,0.0648 -0.9814,0.1053 -0.3254,0.0419 -0.6521,0.0891 -0.9761,0.1417 -0.324,0.054 -0.648,0.1134 -0.9693,0.1782 -0.3213,0.0648 -0.6412,0.1364 -0.9598,0.2134 -0.3173,0.0769 -0.6332,0.1593 -0.9478,0.2484 -0.3132,0.0891 -0.6237,0.1836 -0.9315,0.2848 -0.3091,0.1013 -0.6142,0.2079 -0.9166,0.3213 -0.3025,0.1121 -0.5509,0.2133 -0.7709,0.2984 -0.2187,0.0864 -0.4414,0.1714 -0.6669,0.2578 -0.2241,0.0864 -0.4523,0.1728 -0.6817,0.2579 -0.2295,0.0864 -0.4604,0.1714 -0.6953,0.2565 -0.2336,0.0864 -0.4685,0.1701 -0.7061,0.2551 -0.2362,0.0837 -0.4752,0.1661 -0.7155,0.2484 -0.2403,0.0824 -0.4806,0.1647 -0.7236,0.2444 -0.2416,0.081 -0.4846,0.1593 -0.729,0.2376 -0.2443,0.0783 -0.4887,0.1539 -0.733,0.2295 -0.2457,0.0742 -0.4914,0.1485 -0.7358,0.22 -0.2457,0.0716 -0.4914,0.1418 -0.7371,0.2093 -0.2457,0.0675 -0.4914,0.1336 -0.7371,0.1971 -0.2444,0.0648 -0.49,0.1255 -0.7344,0.1863 -0.2444,0.058 -0.4874,0.1161 -0.7304,0.1701 -0.243,0.0553 -0.4846,0.1067 -0.7263,0.1566 -0.2402,0.0499 -0.4806,0.0959 -0.7182,0.1404 -0.2388,0.0432 -0.4764,0.0851 -0.7114,0.1228 -0.2362,0.0378 -0.4698,0.073 -0.702,0.104 -0.2322,0.0324 -0.463,0.0608 -0.6925,0.0864 -0.2282,0.0243 -0.455,0.0459 -0.6791,0.0648 -0.2241,0.0176 -0.4468,0.0324 -0.6669,0.0432 -0.2201,0.0122 -0.4374,0.0189 -0.6521,0.0216 -0.2146,0.004 -0.4279,0.0041 -0.6371,-0.0013 -0.2093,-0.0041 -0.4158,-0.0135 -0.6197,-0.0257 -0.2039,-0.0135 -0.4037,-0.031 -0.6008,-0.0526 -0.1984,-0.0203 -0.3915,-0.0473 -0.5831,-0.077 -0.1904,-0.031 -0.3781,-0.0661 -0.5603,-0.1053 -0.1836,-0.0405 -0.3645,-0.085 -0.54,-0.1336 -0.1769,-0.05 -0.3483,-0.104 -0.5171,-0.1634 -0.1687,-0.0608 -0.3321,-0.1242 -0.4927,-0.1944 -0.1593,-0.0702 -0.3146,-0.1444 -0.4658,-0.2254 -0.1512,-0.0811 -0.2983,-0.1674 -0.4401,-0.2579 -0.1417,-0.0918 -0.2794,-0.189 -0.4118,-0.2929 -0.1322,-0.1027 -0.2605,-0.212 -0.3834,-0.3268 -0.1214,-0.1147 -0.2389,-0.2362 -0.351,-0.3631 -0.112,-0.1269 -0.22,-0.2605 -0.3212,-0.3996 -0.1013,-0.1391 -0.1958,-0.2862 -0.2862,-0.4388 -0.0905,-0.1525 -0.1742,-0.3118 -0.2525,-0.4779 -0.0783,-0.166 -0.1499,-0.3388 -0.216,-0.5184 -0.0661,-0.1795 -0.1255,-0.3672 -0.1795,-0.5602 -0.0527,-0.1944 -0.1,-0.3956 -0.1404,-0.6048 -0.0392,-0.208 -0.073,-0.424 -0.1,-0.648 -0.027,-0.2242 -0.0459,-0.455 -0.058,-0.6953 -0.0121,-0.2389 -0.0149,-0.5103 -0.0162,-0.7223 -0.0014,-0.2119 -0.0095,-0.4198 -0.0216,-0.6237 -0.0122,-0.2052 -0.0297,-0.4063 -0.0513,-0.6034 -0.023,-0.1985 -0.0513,-0.3929 -0.0837,-0.5832 -0.0324,-0.1917 -0.0702,-0.3794 -0.1121,-0.563 -0.0432,-0.1849 -0.0904,-0.3645 -0.1417,-0.5427 -0.0527,-0.1768 -0.1094,-0.351 -0.1701,-0.5211 -0.0621,-0.1701 -0.1283,-0.3375 -0.1985,-0.5008 -0.0701,-0.1634 -0.1458,-0.3241 -0.2241,-0.4807 -0.0796,-0.1566 -0.1633,-0.3091 -0.2511,-0.459 -0.0877,-0.1498 -0.1809,-0.2956 -0.2767,-0.4387 -0.0959,-0.1418 -0.1971,-0.2808 -0.3011,-0.4172 -0.1039,-0.135 -0.2133,-0.2673 -0.3254,-0.3955 -0.112,-0.1283 -0.2281,-0.2538 -0.3482,-0.374 -0.1202,-0.1215 -0.243,-0.2389 -0.3713,-0.3537 -0.1269,-0.1134 -0.2578,-0.2241 -0.3929,-0.3307 -0.135,-0.1067 -0.2726,-0.2093 -0.4144,-0.3092 -0.1404,-0.0999 -0.2862,-0.1944 -0.4334,-0.2875 -0.1484,-0.0918 -0.2997,-0.1796 -0.4536,-0.2633 -0.1552,-0.085 -0.3132,-0.1647 -0.4738,-0.2416 -0.1607,-0.077 -0.324,-0.1499 -0.4901,-0.2187 -0.1674,-0.0689 -0.3361,-0.135 -0.5089,-0.1958 -0.1715,-0.0607 -0.347,-0.1188 -0.5238,-0.1714 -0.1782,-0.054 -0.3578,-0.1026 -0.54,-0.1486 -0.1823,-0.0445 -0.3672,-0.085 -0.5549,-0.1228 -0.1876,-0.0364 -0.3766,-0.0702 -0.5683,-0.0986 -0.1931,-0.0283 -0.3861,-0.054 -0.5819,-0.0742 -0.1957,-0.0202 -0.3942,-0.0364 -0.594,-0.0472 -0.1998,-0.0122 -0.4023,-0.0203 -0.6048,-0.023 -0.2038,-0.0027 -0.409,-0.0014 -0.6156,0.004 -0.2066,0.0054 -0.4144,0.0162 -0.6237,0.0311 -0.2093,0.0135 -0.4199,0.0337 -0.6318,0.0567 -0.212,0.0243 -0.4253,0.0526 -0.6386,0.0864 -0.2133,0.0324 -0.4293,0.0716 -0.6439,0.1134 -0.216,0.0432 -0.432,0.0904 -0.6494,0.1431 -0.2173,0.0527 -0.4347,0.1094 -0.652,0.1715 -0.2188,0.0621 -0.4361,0.1296 -0.6548,0.2025 -0.2187,0.0715 -0.4374,0.1485 -0.6561,0.2322 -0.2174,0.0823 -0.436,0.1701 -0.6534,0.2632 -0.2187,0.0932 -0.4361,0.1917 -0.6534,0.2943 -0.216,0.104 -0.432,0.2133 -0.648,0.3281 -0.216,0.1147 -0.4307,0.2349 -0.644,0.3604 -0.2133,0.1256 -0.4252,0.2579 -0.6358,0.3943 -0.212,0.1376 -0.4212,0.2807 -0.6291,0.4292 -0.2079,0.1485 -0.4131,0.3038 -0.617,0.4644 -0.2052,0.1607 -0.4063,0.3268 -0.6061,0.4996 -0.1998,0.1727 -0.397,0.3523 -0.5914,0.5372 -0.1957,0.185 -0.3874,0.3767 -0.5764,0.5751 -0.189,0.1972 -0.374,0.4024 -0.5576,0.613 -0.1822,0.2106 -0.3604,0.4279 -0.5359,0.652 -0.1755,0.2241 -0.347,0.455 -0.5144,0.6939 -0.1674,0.2376 -0.3307,0.482 -0.49,0.7331 -0.158,0.2524 -0.3119,0.5103 -0.4617,0.7762 -0.1485,0.266 -0.293,0.5387 -0.4307,0.8195 -0.1391,0.2808 -0.2713,0.5683 -0.3996,0.864 -0.1269,0.2943 -0.2471,0.5981 -0.3618,0.9085 -0.1147,0.3106 -0.2241,0.6278 -0.3253,0.9545 -0.0729,-0.2551 -0.1445,-0.5089 -0.2147,-0.7614 -0.0715,-0.2538 -0.1417,-0.5063 -0.2106,-0.7573 -0.0689,-0.2525 -0.1363,-0.5036 -0.2038,-0.7534 -0.0675,-0.2497 -0.1337,-0.4994 -0.1985,-0.7479 -0.0648,-0.2484 -0.1296,-0.4954 -0.1931,-0.7425 -0.0634,-0.247 -0.1269,-0.4927 -0.189,-0.7384 -0.062,-0.2457 -0.1228,-0.4901 -0.1836,-0.7331 -0.0594,-0.2443 -0.1188,-0.4873 -0.1782,-0.729 -0.0594,-0.2417 -0.1161,-0.4833 -0.1741,-0.7236 -0.0567,-0.2403 -0.1134,-0.4806 -0.1687,-0.7182 -0.0568,-0.239 -0.1108,-0.4779 -0.1661,-0.7155 -0.054,-0.2363 -0.108,-0.4739 -0.1607,-0.7087 -0.0526,-0.2363 -0.1053,-0.4712 -0.1566,-0.7061 -0.0513,-0.2349 -0.1026,-0.4685 -0.1525,-0.702 -0.05,-0.2322 -0.0999,-0.4658 -0.1485,-0.6966 -0.05,-0.2322 -0.0972,-0.4631 -0.1458,-0.6939 -0.0473,-0.2309 -0.0945,-0.4604 -0.1418,-0.6899 -0.0458,-0.2309 -0.0918,-0.459 -0.1377,-0.6871 -0.0459,-0.2296 -0.0904,-0.4577 -0.135,-0.6845 -0.0445,-0.2281 -0.0877,-0.4549 -0.1309,-0.6818 -0.0432,-0.2268 -0.0864,-0.4522 -0.1283,-0.679 -0.0432,-0.2255 -0.085,-0.4509 -0.1255,-0.6764 -0.0419,-0.2254 -0.0824,-0.4495 -0.1229,-0.675 -0.0405,-0.2241 -0.0796,-0.4495 -0.1188,-0.6737 -0.0391,-0.224 -0.0783,-0.4482 -0.1174,-0.6722 -0.0378,-0.2242 -0.0756,-0.4469 -0.1134,-0.671 -0.0378,-0.2241 -0.0743,-0.4469 -0.1107,-0.671 -0.0365,-0.2241 -0.0729,-0.4468 -0.1094,-0.6709 -0.0351,-0.2228 -0.0715,-0.4469 -0.1053,-0.671 -0.0351,-0.2227 -0.0702,-0.4468 -0.1039,-0.6709 -0.0351,-0.2242 -0.0689,-0.4482 -0.1013,-0.6723 -0.0337,-0.2255 -0.0661,-0.4496 -0.0985,-0.6737 -0.0338,-0.2254 -0.0648,-0.4509 -0.0972,-0.6763 -0.0324,-0.2255 -0.0635,-0.451 -0.0945,-0.6778 -0.0311,-0.2254 -0.0608,-0.4522 -0.0918,-0.6804 -0.0297,-0.2268 -0.0594,-0.4536 -0.0891,-0.6817 -0.0297,-0.2282 -0.0594,-0.4577 -0.0878,-0.6872 -0.0283,-0.2282 -0.0567,-0.459 -0.085,-0.6898 -0.0284,-0.2296 -0.0554,-0.4617 -0.0824,-0.6926 -0.0283,-0.2322 -0.054,-0.4657 -0.081,-0.6993 -0.027,-0.2336 -0.0526,-0.4671 -0.0783,-0.702 -0.0257,-0.2349 -0.0513,-0.4712 -0.0756,-0.7088 -0.0257,-0.2362 -0.0499,-0.4738 -0.0729,-0.7128 -0.0243,-0.2389 -0.0486,-0.4792 -0.0716,-0.7195 -0.0229,-0.2417 -0.0458,-0.4833 -0.0688,-0.7263 -0.0216,-0.243 -0.0446,-0.4874 -0.0662,-0.7317 -0.0216,-0.2457 -0.0418,-0.4914 -0.062,-0.7398 -0.0216,-0.2471 -0.0406,-0.4968 -0.0608,-0.7466 -0.0202,-0.2497 -0.0392,-0.5022 -0.058,-0.7546 -0.0176,-0.2525 -0.0365,-0.5063 -0.054,-0.7628 -0.0176,-0.2552 -0.0352,-0.5116 -0.0514,-0.7695 -0.0162,-0.2592 -0.0324,-0.5184 -0.0472,-0.7803 -0.0162,-0.2606 -0.031,-0.5238 -0.0446,-0.7884 -0.0148,-0.2647 -0.0283,-0.5292 -0.0418,-0.7979 -0.0122,-0.2673 -0.0243,-0.5359 -0.0364,-0.8059 -0.0122,-0.2714 -0.023,-0.5441 -0.0338,-0.8182 -0.0094,-0.2727 -0.0189,-0.5494 -0.0284,-0.8262 -0.008,-0.2767 -0.0162,-0.5562 -0.0242,-0.837 -0.0068,-0.2808 -0.0136,-0.5629 -0.019,-0.8478 -0.0054,-0.2848 -0.0094,-0.5697 -0.0134,-0.8586 -0.0041,-0.2876 -0.0068,-0.5778 -0.0095,-0.868 -0.0013,-0.2916 -0.0027,-0.5859 -0.0027,-0.8802z"/>
   <path id="_94955656" class="fil1" d="M3.8389 38.2992c0.1445,-0.3294 0.2957,-0.652 0.4523,-0.9679 0.1566,-0.3145 0.3186,-0.6224 0.486,-0.9248 0.1674,-0.301 0.3402,-0.5966 0.5184,-0.8842 0.1768,-0.2889 0.3591,-0.5697 0.5454,-0.8451 0.1863,-0.2741 0.3766,-0.5427 0.571,-0.8046 0.1958,-0.262 0.3942,-0.5184 0.5968,-0.7668 0.2024,-0.2498 0.4076,-0.4928 0.6169,-0.7291 0.2092,-0.2376 0.4212,-0.4684 0.6358,-0.6925 0.216,-0.2241 0.4334,-0.4428 0.6548,-0.6547 0.22,-0.2134 0.4428,-0.4199 0.6683,-0.6197 0.2254,-0.2012 0.4536,-0.3956 0.6831,-0.5846 0.2295,-0.189 0.4603,-0.3726 0.6939,-0.5508 0.2335,-0.1768 0.4671,-0.3496 0.7033,-0.5157 0.2363,-0.166 0.4739,-0.3267 0.7128,-0.4819 0.2376,-0.1553 0.478,-0.3051 0.7182,-0.4496 0.2404,-0.1445 0.482,-0.2835 0.7236,-0.4185 0.2417,-0.1336 0.4834,-0.2619 0.7264,-0.3847 0.243,-0.1243 0.486,-0.2417 0.729,-0.3551 0.243,-0.1134 0.4873,-0.2214 0.7303,-0.324 0.243,-0.1026 0.486,-0.2011 0.729,-0.2943 0.2431,-0.0918 0.4847,-0.1809 0.7263,-0.2632 0.243,-0.0837 0.4847,-0.162 0.725,-0.235 0.2403,-0.0729 0.4806,-0.1417 0.7195,-0.2052 0.239,-0.0648 0.478,-0.1242 0.7142,-0.1782 0.2376,-0.054 0.4738,-0.1039 0.7088,-0.1498 0.2349,-0.0446 0.4684,-0.085 0.7006,-0.1215 0.2322,-0.0365 0.4617,-0.0675 0.6912,-0.0945 0.2295,-0.027 0.4563,-0.05 0.6831,-0.0688 0.2255,-0.0176 0.4496,-0.0324 0.671,-0.0419 0.2227,-0.0095 0.4428,-0.0135 0.6615,-0.0149 0.2174,-0.0013 0.4334,0.0028 0.648,0.0108 0.2146,0.0068 0.4252,0.019 0.6358,0.0352 0.2093,0.0161 0.4158,0.0364 0.621,0.0607 0.2053,0.0243 0.4064,0.0527 0.6062,0.0864 0.1998,0.0324 0.3969,0.0689 0.5913,0.1093 0.1944,0.0419 0.3861,0.0864 0.5751,0.135 0.189,0.0486 0.3753,0.1026 0.559,0.1594 0.1822,0.0566 0.3631,0.1174 0.5399,0.1822 0.1769,0.0648 0.351,0.1336 0.5211,0.2066 0.1715,0.0729 0.3389,0.1498 0.5036,0.2295 0.1647,0.081 0.3253,0.1647 0.4833,0.2538 0.1566,0.0877 0.3118,0.1795 0.4617,0.2754 0.1512,0.0958 0.2983,0.1957 0.4415,0.2997 0.143,0.1039 0.2834,0.2106 0.4198,0.3226 0.1364,0.1107 0.2686,0.2255 0.3969,0.3443 0.1283,0.1188 0.2538,0.2403 0.374,0.3672 0.1201,0.1255 0.2376,0.2565 0.3496,0.3888 0.1134,0.1336 0.2214,0.2713 0.3267,0.4131 0.104,0.1404 0.2039,0.2848 0.3011,0.4333 0.0958,0.1485 0.1876,0.3011 0.274,0.4577 0.0878,0.1552 0.1715,0.3145 0.2498,0.4779 0.0783,0.1633 0.1525,0.3308 0.2214,0.5008 0.0688,0.1715 0.1336,0.3456 0.1944,0.5238 0.0594,0.1782 0.1147,0.3592 0.166,0.5454 0.05,0.185 0.0959,0.374 0.1364,0.567 0.0405,0.1931 0.0769,0.3888 0.1066,0.5887 0.0311,0.2011 0.0567,0.405 0.077,0.6129 0.0202,0.2065 0.0351,0.4036 0.0459,0.6372 0.0108,0.2349 0.0229,0.4671 0.0351,0.6966 0.0121,0.2308 0.0229,0.4468 0.0391,0.7074 0.0162,0.2619 0.0392,0.5144 0.0689,0.7574 0.0283,0.2429 0.0648,0.4765 0.1053,0.702 0.0418,0.2241 0.0891,0.4414 0.1431,0.6493 0.0527,0.2079 0.1121,0.4064 0.1769,0.5981 0.0648,0.1903 0.135,0.3726 0.2119,0.5481 0.0756,0.1741 0.1566,0.3415 0.243,0.4995 0.0864,0.1593 0.1782,0.3105 0.2754,0.4536 0.0972,0.1431 0.1998,0.2794 0.3065,0.4077 0.1066,0.1282 0.2186,0.2497 0.3348,0.3645 0.116,0.1134 0.2376,0.22 0.3631,0.32 0.1256,0.1012 0.2565,0.1943 0.3902,0.2808 0.135,0.0863 0.274,0.166 0.4171,0.2389 0.1431,0.0742 0.2903,0.1404 0.4415,0.2011 0.1512,0.0608 0.3051,0.1148 0.4644,0.1634 0.1593,0.0486 0.3213,0.0905 0.4887,0.1269 0.166,0.0364 0.3361,0.0675 0.509,0.0918 0.1727,0.0256 0.3496,0.0446 0.5305,0.0594 0.1795,0.0135 0.3631,0.0216 0.5495,0.0257 0.1862,0.0027 0.3766,0.0013 0.5683,-0.0054 0.193,-0.0068 0.3888,-0.0189 0.5859,-0.0351 0.1985,-0.0176 0.3996,-0.0392 0.6035,-0.0648 0.2024,-0.0257 0.409,-0.0568 0.6169,-0.0918 0.2093,-0.0352 0.4199,-0.0743 0.6332,-0.1188 0.2119,-0.0433 0.4279,-0.0919 0.6453,-0.1432 0.2173,-0.0526 0.436,-0.108 0.6574,-0.1674 0.2201,-0.0594 0.4442,-0.1228 0.6683,-0.1903 0.2241,-0.0675 0.4509,-0.1377 0.6777,-0.212 0.2282,-0.0729 0.4575,-0.1512 0.6871,-0.2308 0.2308,-0.081 0.4617,-0.1647 0.6952,-0.2511 0.2322,-0.0864 0.4658,-0.1755 0.7007,-0.2687 0.2349,-0.0918 0.4698,-0.1862 0.7061,-0.2835 0.2362,-0.0972 0.4724,-0.1971 0.71,-0.2997 0.2363,-0.1013 0.4739,-0.2065 0.7115,-0.3118 0.2376,-0.1067 0.4765,-0.2147 0.7141,-0.3254 0.2377,-0.1107 0.4766,-0.2214 0.7142,-0.3348 0.2376,-0.1134 0.4739,-0.2281 0.7115,-0.3456 0.2362,-0.1161 0.4738,-0.2335 0.7087,-0.351 0.2363,-0.1188 0.4712,-0.2389 0.7047,-0.3591 0.2349,-0.1202 0.4671,-0.2403 0.6993,-0.3618 0.2309,-0.1215 0.4617,-0.2443 0.6912,-0.3659 0.2282,-0.1228 0.4563,-0.2443 0.6818,-0.3672 0.2255,-0.1215 0.4495,-0.2443 0.6709,-0.3658 0.2228,-0.1215 0.4415,-0.243 0.7007,-0.378 0.2592,-0.135 0.5197,-0.266 0.7803,-0.3942 0.2606,-0.1283 0.5711,-0.2835 0.8748,-0.428 0.3051,-0.1445 0.6129,-0.2835 0.9221,-0.4185 0.3105,-0.135 0.6223,-0.2659 0.9369,-0.3915 0.3132,-0.1255 0.6304,-0.2457 0.9477,-0.3604 0.3186,-0.1161 0.6385,-0.2268 0.9599,-0.3321 0.3213,-0.1054 0.6439,-0.2066 0.9679,-0.3011 0.324,-0.0959 0.6494,-0.1863 0.9761,-0.27 0.3253,-0.0851 0.6534,-0.1647 0.9801,-0.239 0.328,-0.0742 0.6561,-0.143 0.9841,-0.2065 0.3295,-0.0635 0.6575,-0.1201 0.9855,-0.1728 0.3281,-0.0527 0.6575,-0.0985 0.9842,-0.1391 0.3281,-0.0405 0.6548,-0.0756 0.9815,-0.1039 0.3267,-0.0297 0.652,-0.0527 0.976,-0.0702 0.324,-0.0162 0.6467,-0.027 0.9667,-0.0324 0.3213,-0.0054 0.6398,-0.0041 0.9571,0.0041 0.3173,0.008 0.6318,0.0216 0.9437,0.0418 0.3118,0.0216 0.621,0.0486 0.9274,0.081 0.3065,0.0337 0.6089,0.0742 0.9086,0.1215 0.2997,0.0472 0.5953,0.1013 0.8869,0.162 0.2916,0.0607 0.5792,0.1283 0.8627,0.2039 0.2821,0.0742 0.5602,0.1566 0.8329,0.247 0.2728,0.0891 0.54,0.1863 0.802,0.2903 0.2618,0.1039 0.517,0.216 0.7668,0.3348 0.2484,0.1201 0.4914,0.247 0.7276,0.382 0.2349,0.135 0.4644,0.2781 0.6845,0.4293 0.22,0.1512 0.4333,0.3105 0.6385,0.4779 0.2039,0.1674 0.3996,0.3429 0.5859,0.5279 -0.0472,0.2781 -0.0945,0.5548 -0.1404,0.8276 -0.0459,0.2726 -0.0904,0.5426 -0.1336,0.81 -0.0432,0.2672 -0.0864,0.5319 -0.1269,0.7938 -0.0405,0.2619 -0.0797,0.5224 -0.1188,0.7789 -0.0378,0.2565 -0.0756,0.5117 -0.1121,0.7641 -0.0364,0.2525 -0.0715,0.5022 -0.1066,0.7493 -0.0338,0.2484 -0.0675,0.4941 -0.0999,0.7385 -0.0324,0.2429 -0.0635,0.4846 -0.0945,0.7249 -0.031,0.2403 -0.0608,0.4779 -0.0891,0.7155 -0.0297,0.2363 -0.0581,0.4711 -0.0851,0.7047 -0.027,0.2336 -0.054,0.4644 -0.0796,0.6953 -0.0256,0.2308 -0.0513,0.4603 -0.0756,0.6885 -0.0243,0.2281 -0.0486,0.4549 -0.0716,0.6804 -0.0229,0.2268 -0.0445,0.4509 -0.0675,0.675 -0.0215,0.2241 -0.0418,0.4482 -0.0621,0.671 -0.0216,0.2227 -0.0405,0.4441 -0.0607,0.6668 -0.019,0.2214 -0.0378,0.4428 -0.0554,0.6629 -0.0189,0.2214 -0.0364,0.4428 -0.054,0.6629 -0.0161,0.22 -0.0324,0.4414 -0.0486,0.6615 -0.0161,0.22 -0.0324,0.4414 -0.0472,0.6615 -0.0149,0.2214 -0.0298,0.4428 -0.0432,0.6642 -0.0135,0.2214 -0.027,0.4441 -0.0406,0.6656 -0.0121,0.2227 -0.0256,0.4468 -0.0378,0.6709 -0.0108,0.2241 -0.0229,0.4495 -0.0337,0.675 -0.0108,0.2254 -0.0216,0.4523 -0.0311,0.6804 -0.0094,0.2282 -0.0188,0.4577 -0.0283,0.6885 -0.0081,0.2309 -0.0175,0.4631 -0.0257,0.6979 -0.0067,0.2336 -0.0148,0.4685 -0.0216,0.7061 -0.0067,0.2363 -0.0121,0.4766 -0.0175,0.7169 -0.0054,0.2416 -0.0108,0.4846 -0.0162,0.729 -0.004,0.2457 -0.0081,0.4927 -0.0108,0.7425 -0.0027,0.2497 -0.0054,0.5022 -0.0081,0.7573 -0.0014,0.2538 -0.0027,0.5117 -0.0027,0.7722 0,0.2592 0,0.5225 0.0013,0.7884 0,0.266 0.0028,0.536 0.0054,0.8074 0.0014,0.2727 0.0054,0.5481 0.0095,0.8275 0.0041,0.2781 0.0095,0.5616 0.0162,0.8479 0.0054,0.2861 0.0135,0.575 0.0216,0.8694 0.0081,0.2929 0.0162,0.5912 0.027,0.8923 0.0108,0.3024 0.0216,0.6075 0.0337,0.918 -0.0836,-0.2092 -0.1822,-0.4131 -0.2929,-0.6102 -0.112,-0.1985 -0.2363,-0.3902 -0.3739,-0.5765 -0.1377,-0.1849 -0.2876,-0.3658 -0.4482,-0.54 -0.162,-0.1741 -0.3348,-0.3415 -0.5171,-0.5035 -0.1836,-0.162 -0.3767,-0.3186 -0.5792,-0.4685 -0.2038,-0.1512 -0.4158,-0.2943 -0.6372,-0.4333 -0.2214,-0.1377 -0.4522,-0.27 -0.6898,-0.3969 -0.2376,-0.1256 -0.4833,-0.2471 -0.7358,-0.3605 -0.2524,-0.1147 -0.513,-0.2227 -0.7789,-0.3253 -0.266,-0.1026 -0.5387,-0.1985 -0.8168,-0.2889 -0.2781,-0.0905 -0.5616,-0.1742 -0.8505,-0.2525 -0.2889,-0.0783 -0.5818,-0.1512 -0.8788,-0.2174 -0.2984,-0.0661 -0.5994,-0.1268 -0.9059,-0.1808 -0.3051,-0.054 -0.6143,-0.1026 -0.9261,-0.1458 -0.3119,-0.0419 -0.6264,-0.0784 -0.9437,-0.108 -0.3172,-0.0311 -0.6372,-0.0554 -0.9585,-0.0743 -0.3213,-0.0175 -0.644,-0.0297 -0.9693,-0.0365 -0.324,-0.0067 -0.6493,-0.0067 -0.9761,-0.0013 -0.3267,0.0054 -0.6534,0.0175 -0.9814,0.0337 -0.3267,0.0176 -0.6548,0.0419 -0.9815,0.0716 -0.328,0.0284 -0.6547,0.0648 -0.9814,0.1053 -0.3254,0.0419 -0.6521,0.0891 -0.9761,0.1417 -0.324,0.054 -0.648,0.1134 -0.9693,0.1782 -0.3213,0.0648 -0.6412,0.1364 -0.9598,0.2134 -0.3173,0.0769 -0.6332,0.1593 -0.9478,0.2484 -0.3132,0.0891 -0.6237,0.1836 -0.9315,0.2848 -0.3091,0.1013 -0.6142,0.2079 -0.9166,0.3213 -0.3025,0.1121 -0.5509,0.2133 -0.7709,0.2984 -0.2187,0.0864 -0.4414,0.1714 -0.6669,0.2578 -0.2241,0.0864 -0.4523,0.1728 -0.6817,0.2579 -0.2295,0.0864 -0.4604,0.1714 -0.6953,0.2565 -0.2336,0.0864 -0.4685,0.1701 -0.7061,0.2551 -0.2362,0.0837 -0.4752,0.1661 -0.7155,0.2484 -0.2403,0.0824 -0.4806,0.1647 -0.7236,0.2444 -0.2416,0.081 -0.4846,0.1593 -0.729,0.2376 -0.2443,0.0783 -0.4887,0.1539 -0.733,0.2295 -0.2457,0.0742 -0.4914,0.1485 -0.7358,0.22 -0.2457,0.0716 -0.4914,0.1418 -0.7371,0.2093 -0.2457,0.0675 -0.4914,0.1336 -0.7371,0.1971 -0.2444,0.0648 -0.49,0.1255 -0.7344,0.1863 -0.2444,0.058 -0.4874,0.1161 -0.7304,0.1701 -0.243,0.0553 -0.4846,0.1067 -0.7263,0.1566 -0.2402,0.0499 -0.4806,0.0959 -0.7182,0.1404 -0.2388,0.0432 -0.4764,0.0851 -0.7114,0.1228 -0.2362,0.0378 -0.4698,0.073 -0.702,0.104 -0.2322,0.0324 -0.463,0.0608 -0.6925,0.0864 -0.2282,0.0243 -0.455,0.0459 -0.6791,0.0648 -0.2241,0.0176 -0.4468,0.0324 -0.6669,0.0432 -0.2201,0.0122 -0.4374,0.0189 -0.6521,0.0216 -0.2146,0.004 -0.4279,0.0041 -0.6371,-0.0013 -0.2093,-0.0041 -0.4158,-0.0135 -0.6197,-0.0257 -0.2039,-0.0135 -0.4037,-0.031 -0.6008,-0.0526 -0.1984,-0.0203 -0.3915,-0.0473 -0.5831,-0.077 -0.1904,-0.031 -0.3781,-0.0661 -0.5603,-0.1053 -0.1836,-0.0405 -0.3645,-0.085 -0.54,-0.1336 -0.1769,-0.05 -0.3483,-0.104 -0.5171,-0.1634 -0.1687,-0.0608 -0.3321,-0.1242 -0.4927,-0.1944 -0.1593,-0.0702 -0.3146,-0.1444 -0.4658,-0.2254 -0.1512,-0.0811 -0.2983,-0.1674 -0.4401,-0.2579 -0.1417,-0.0918 -0.2794,-0.189 -0.4118,-0.2929 -0.1322,-0.1027 -0.2605,-0.212 -0.3834,-0.3268 -0.1214,-0.1147 -0.2389,-0.2362 -0.351,-0.3631 -0.112,-0.1269 -0.22,-0.2605 -0.3212,-0.3996 -0.1013,-0.1391 -0.1958,-0.2862 -0.2862,-0.4388 -0.0905,-0.1525 -0.1742,-0.3118 -0.2525,-0.4779 -0.0783,-0.166 -0.1499,-0.3388 -0.216,-0.5184 -0.0661,-0.1795 -0.1255,-0.3672 -0.1795,-0.5602 -0.0527,-0.1944 -0.1,-0.3956 -0.1404,-0.6048 -0.0392,-0.208 -0.073,-0.424 -0.1,-0.648 -0.027,-0.2242 -0.0459,-0.455 -0.058,-0.6953 -0.0121,-0.2389 -0.0149,-0.5103 -0.0162,-0.7223 -0.0014,-0.2119 -0.0095,-0.4198 -0.0216,-0.6237 -0.0122,-0.2052 -0.0297,-0.4063 -0.0513,-0.6034 -0.023,-0.1985 -0.0513,-0.3929 -0.0837,-0.5832 -0.0324,-0.1917 -0.0702,-0.3794 -0.1121,-0.563 -0.0432,-0.1849 -0.0904,-0.3645 -0.1417,-0.5427 -0.0527,-0.1768 -0.1094,-0.351 -0.1701,-0.5211 -0.0621,-0.1701 -0.1283,-0.3375 -0.1985,-0.5008 -0.0701,-0.1634 -0.1458,-0.3241 -0.2241,-0.4807 -0.0796,-0.1566 -0.1633,-0.3091 -0.2511,-0.459 -0.0877,-0.1498 -0.1809,-0.2956 -0.2767,-0.4387 -0.0959,-0.1418 -0.1971,-0.2808 -0.3011,-0.4172 -0.1039,-0.135 -0.2133,-0.2673 -0.3254,-0.3955 -0.112,-0.1283 -0.2281,-0.2538 -0.3482,-0.374 -0.1202,-0.1215 -0.243,-0.2389 -0.3713,-0.3537 -0.1269,-0.1134 -0.2578,-0.2241 -0.3929,-0.3307 -0.135,-0.1067 -0.2726,-0.2093 -0.4144,-0.3092 -0.1404,-0.0999 -0.2862,-0.1944 -0.4334,-0.2875 -0.1484,-0.0918 -0.2997,-0.1796 -0.4536,-0.2633 -0.1552,-0.085 -0.3132,-0.1647 -0.4738,-0.2416 -0.1607,-0.077 -0.324,-0.1499 -0.4901,-0.2187 -0.1674,-0.0689 -0.3361,-0.135 -0.5089,-0.1958 -0.1715,-0.0607 -0.347,-0.1188 -0.5238,-0.1714 -0.1782,-0.054 -0.3578,-0.1026 -0.54,-0.1486 -0.1823,-0.0445 -0.3672,-0.085 -0.5549,-0.1228 -0.1876,-0.0364 -0.3766,-0.0702 -0.5683,-0.0986 -0.1931,-0.0283 -0.3861,-0.054 -0.5819,-0.0742 -0.1957,-0.0202 -0.3942,-0.0364 -0.594,-0.0472 -0.1998,-0.0122 -0.4023,-0.0203 -0.6048,-0.023 -0.2038,-0.0027 -0.409,-0.0014 -0.6156,0.004 -0.2066,0.0054 -0.4144,0.0162 -0.6237,0.0311 -0.2093,0.0135 -0.4199,0.0337 -0.6318,0.0567 -0.212,0.0243 -0.4253,0.0526 -0.6386,0.0864 -0.2133,0.0324 -0.4293,0.0716 -0.6439,0.1134 -0.216,0.0432 -0.432,0.0904 -0.6494,0.1431 -0.2173,0.0527 -0.4347,0.1094 -0.652,0.1715 -0.2188,0.0621 -0.4361,0.1296 -0.6548,0.2025 -0.2187,0.0715 -0.4374,0.1485 -0.6561,0.2322 -0.2174,0.0823 -0.436,0.1701 -0.6534,0.2632 -0.2187,0.0932 -0.4361,0.1917 -0.6534,0.2943 -0.216,0.104 -0.432,0.2133 -0.648,0.3281 -0.216,0.1147 -0.4307,0.2349 -0.644,0.3604 -0.2133,0.1256 -0.4252,0.2579 -0.6358,0.3943 -0.212,0.1376 -0.4212,0.2807 -0.6291,0.4292 -0.2079,0.1485 -0.4131,0.3038 -0.617,0.4644 -0.2052,0.1607 -0.4063,0.3268 -0.6061,0.4996 -0.1998,0.1727 -0.397,0.3523 -0.5914,0.5372 -0.1957,0.185 -0.3874,0.3767 -0.5764,0.5751 -0.189,0.1972 -0.374,0.4024 -0.5576,0.613 -0.1822,0.2106 -0.3604,0.4279 -0.5359,0.652 -0.1755,0.2241 -0.347,0.455 -0.5144,0.6939 -0.1674,0.2376 -0.3307,0.482 -0.49,0.7331 -0.158,0.2524 -0.3119,0.5103 -0.4617,0.7762 -0.1485,0.266 -0.293,0.5387 -0.4307,0.8195 -0.1391,0.2808 -0.2713,0.5683 -0.3996,0.864 -0.1269,0.2943 -0.2471,0.5981 -0.3618,0.9085 -0.1147,0.3106 -0.2241,0.6278 -0.3253,0.9545 -0.0743,-0.2632 -0.1486,-0.5238 -0.2201,-0.7803 -0.0715,-0.2578 -0.1431,-0.5116 -0.2119,-0.7641 -0.0689,-0.2525 -0.1364,-0.5009 -0.2026,-0.7479 -0.0661,-0.2457 -0.1309,-0.49 -0.1944,-0.7317 -0.0634,-0.2417 -0.1255,-0.482 -0.1863,-0.7182 -0.0621,-0.2376 -0.1215,-0.4725 -0.1809,-0.7061 -0.0594,-0.2322 -0.1161,-0.4644 -0.1741,-0.6939 -0.0567,-0.2295 -0.112,-0.4563 -0.1674,-0.6831 -0.0554,-0.2268 -0.1094,-0.4509 -0.1634,-0.675 -0.054,-0.2241 -0.1066,-0.4468 -0.1579,-0.6682 -0.0527,-0.2215 -0.104,-0.4415 -0.1539,-0.6616 -0.0513,-0.22 -0.1013,-0.4401 -0.1512,-0.6588 -0.05,-0.2187 -0.0986,-0.4373 -0.1472,-0.6561 -0.0486,-0.2173 -0.0958,-0.436 -0.1444,-0.6547 -0.0472,-0.2187 -0.0945,-0.4374 -0.1418,-0.6575 -0.0472,-0.2187 -0.0931,-0.4387 -0.1404,-0.6588 -0.0458,-0.2214 -0.0918,-0.4428 -0.1377,-0.6656 -0.0459,-0.2227 -0.0918,-0.4454 -0.1377,-0.6709 -0.0458,-0.2255 -0.0904,-0.4523 -0.1363,-0.6804 -0.0445,-0.2295 -0.0905,-0.459 -0.135,-0.6912 -0.0459,-0.2322 -0.0905,-0.4671 -0.1364,-0.7047 -0.0445,-0.2363 -0.0891,-0.4766 -0.135,-0.7182 -0.0445,-0.243 -0.0891,-0.4874 -0.135,-0.7358 -0.0445,-0.2484 -0.0904,-0.4995 -0.135,-0.7546 -0.0459,-0.2538 -0.0904,-0.513 -0.1363,-0.7749 -0.0446,-0.2619 -0.0905,-0.5279 -0.135,-0.7979 -0.0459,-0.27 -0.0918,-0.5441 -0.1377,-0.8235 -0.0459,-0.2795 -0.0905,-0.5616 -0.1364,-0.8505 -0.0459,-0.2889 -0.0918,-0.5819 -0.1377,-0.8802 -0.0459,-0.2984 -0.0918,-0.6008 -0.1377,-0.91z"/>
   <g style="clip-path:url(#id0)">
    <image id="_95802280" transform="matrix(0.425201 0 0 -0.425201 15.3971 26.1697)" x="45" y="-86.7037" width="25.5404" height="121.704" xlink:href="flag_Images\flag_ImgID1.png"/>
   </g>
   <g style="clip-path:url(#id1)">
    <image id="_95802088" transform="matrix(0.425201 0 0 -0.425201 15.9428 24.9782)" x="45" y="-39.5522" width="25.0451" height="74.5522" xlink:href="flag_Images\flag_ImgID2.png"/>
   </g>
   <g style="clip-path:url(#id2)">
    <image id="_95802040" transform="matrix(0.425201 0 0 -0.425201 15.3435 52.7297)" x="45" y="-27.7948" width="43.4017" height="62.7948" xlink:href="flag_Images\flag_ImgID3.png"/>
   </g>
   <path id="_94955824" class="fil2" d="M76.4648 48.3403l0 0.0021c-0.086,1.2747 -0.1315,2.554 -0.133,3.8368l0 0.1401c-0.0018,-1.3305 0.0438,-2.6572 0.133,-3.979z"/>
   <path id="_94955560" class="fil2" d="M76.5982 46.6962l0 0.0019c-0.0517,0.5465 -0.0963,1.0939 -0.1334,1.6422l0 0.0021c0.0371,-0.5496 0.0815,-1.0984 0.1334,-1.6462z"/>
   <path id="_95802376" class="fil2" d="M76.7315 45.4268l0 0.0005c-0.0487,0.423 -0.0932,0.8467 -0.1333,1.2708l0 -0.0019c0.0401,-0.4237 0.0846,-0.8468 0.1333,-1.2694z"/>
   <path id="_95802448" class="fil2" d="M76.8648 44.3488l0 0.0002c-0.0474,0.3588 -0.0919,0.7181 -0.1333,1.0778l0 0.0005c0.0414,-0.3599 0.0858,-0.7194 0.1333,-1.0785z"/>
   <path id="_95802496" class="fil2" d="M76.9982 43.3939l0 0.0009c-0.0467,0.3177 -0.0912,0.6357 -0.1334,0.954l0 0.0002c0.0422,-0.3187 0.0866,-0.6371 0.1334,-0.9551z"/>
   <path id="_95802592" class="fil2" d="M77.1315 42.5278l0 0.0001c-0.0462,0.2884 -0.0908,0.577 -0.1333,0.866l0 0.0009c0.0425,-0.2893 0.087,-0.5783 0.1333,-0.867z"/>
   <path id="_95802640" class="fil2" d="M77.2648 41.727l0 0.0005c-0.046,0.2665 -0.0905,0.5334 -0.1333,0.8004l0 -0.0001c0.0429,-0.2672 0.0873,-0.5342 0.1333,-0.8008z"/>
   <path id="_95802712" class="fil2" d="M77.3982 40.9783l0 0.0002c-0.0458,0.2492 -0.0903,0.4987 -0.1334,0.7485l0 0.0005c0.0431,-0.25 0.0876,-0.4997 0.1334,-0.7492z"/>
   <path id="_95802808" class="fil2" d="M77.5315 40.2733l0 0.0002c-0.0456,0.2347 -0.0901,0.4696 -0.1333,0.7048l0 0.0002c0.0433,-0.2353 0.0877,-0.4703 0.1333,-0.7052z"/>
   <path id="_95802856" class="fil2" d="M77.6649 39.603l0 0.0004c-0.0455,0.2231 -0.09,0.4466 -0.1334,0.6701l0 -0.0002c0.0434,-0.2236 0.0878,-0.4471 0.1334,-0.6703z"/>
   <path id="_92688968" class="fil2" d="M77.7982 38.9639l0 0.0004c-0.0454,0.2128 -0.0898,0.4258 -0.1333,0.6391l0 -0.0004c0.0435,-0.2132 0.0879,-0.4263 0.1333,-0.6391z"/>
   <path id="_93251352" class="fil2" d="M77.9315 38.3509l0 0c-0.0453,0.2042 -0.0897,0.4085 -0.1333,0.613l0 0.0004c0.0436,-0.2047 0.088,-0.4091 0.1333,-0.6134z"/>
   <path id="_94956016" class="fil2" d="M78.0648 37.7615l0 0.0002c-0.0452,0.1962 -0.0896,0.3926 -0.1333,0.5892l0 0c0.0437,-0.1966 0.0881,-0.3931 0.1333,-0.5894z"/>
   <path id="_95802904" class="fil2" d="M78.1982 37.1923l0 0.0001c-0.0452,0.1896 -0.0896,0.3794 -0.1334,0.5693l0 -0.0002c0.0438,-0.1899 0.0882,-0.3796 0.1334,-0.5692z"/>
   <path id="_95417672" class="fil2" d="M78.3315 36.6417l0 0c-0.045,0.1834 -0.0895,0.3669 -0.1333,0.5506l0 0.0001c0.0437,-0.1837 0.0882,-0.3673 0.1333,-0.5507z"/>
   <path id="_95417960" class="fil2" d="M78.4649 36.1074l0 0.0001c-0.0451,0.1779 -0.0896,0.3559 -0.1334,0.5342l0 0c0.0439,-0.1782 0.0883,-0.3563 0.1334,-0.5343z"/>
   <path id="_95418008" class="fil2" d="M78.5982 35.5883l0 0c-0.045,0.1729 -0.0894,0.3459 -0.1333,0.5191l0 0.0001c0.0439,-0.1732 0.0882,-0.3463 0.1333,-0.5192z"/>
   <path id="_95418104" class="fil2" d="M78.7316 35.082l0 0.0001c-0.0451,0.1686 -0.0895,0.3373 -0.1334,0.5062l0 0c0.0439,-0.1689 0.0883,-0.3377 0.1334,-0.5063z"/>
   <path id="_95418152" class="fil2" d="M78.8649 34.5894l0 0.0002c-0.0449,0.164 -0.0895,0.3282 -0.1333,0.4925l0 -0.0001c0.0439,-0.1643 0.0884,-0.3285 0.1333,-0.4926z"/>
   <path id="_95418224" class="fil2" d="M78.9982 34.1081l0 0.0001c-0.0449,0.1604 -0.0894,0.3208 -0.1333,0.4814l0 -0.0002c0.0439,-0.1606 0.0884,-0.321 0.1333,-0.4813z"/>
   <path id="_95418296" class="fil2" d="M79.1316 33.6367l0 0.0002c-0.045,0.157 -0.0893,0.3141 -0.1334,0.4713l0 -0.0001c0.0441,-0.1573 0.0884,-0.3144 0.1334,-0.4714z"/>
   <path id="_95418368" class="fil2" d="M79.2649 33.1765l0 0.0001c-0.0448,0.1534 -0.0893,0.3067 -0.1333,0.4603l0 -0.0002c0.044,-0.1536 0.0885,-0.3069 0.1333,-0.4602z"/>
   <polygon id="_95417840" class="fil2" points="79.3043,33.0416 79.3044,33.0416 79.2649,33.1766 79.2649,33.1765 "/>
   <g style="clip-path:url(#id3)">
    <image id="_95418512" transform="matrix(0.425201 0 0 -0.425201 59.3058 24.6745)" x="45" y="-93.416" width="25.1094" height="128.416" xlink:href="flag_Images\flag_ImgID4.png"/>
   </g>
   <g style="clip-path:url(#id4)">
    <image id="_95826920" transform="matrix(0.425201 0 0 -0.425201 60.1703 24.686)" x="45" y="-93.3864" width="23.0618" height="128.386" xlink:href="flag_Images\flag_ImgID5.png"/>
   </g>
   <g style="clip-path:url(#id5)">
    <image id="_95826896" transform="matrix(0.425201 0 0 -0.425201 57.1977 47.9236)" x="45" y="-38.7355" width="13.9637" height="73.7355" xlink:href="flag_Images\flag_ImgID6.png"/>
   </g>
   <g style="clip-path:url(#id6)">
    <image id="_95827040" transform="matrix(0.425201 0 0 -0.425201 -5.65736 62.8043)" x="45" y="25.0054" width="22.733" height="9.9946" xlink:href="flag_Images\flag_ImgID7.png"/>
   </g>
   <g style="clip-path:url(#id7)">
    <image id="_95827064" transform="matrix(0.425201 0 0 -0.425201 -11.0088 16.0047)" x="45" y="-33.1528" width="37.7666" height="68.1528" xlink:href="flag_Images\flag_ImgID8.png"/>
   </g>
   <g style="clip-path:url(#id8)">
    <image id="_95827136" transform="matrix(0.425201 0 0 -0.425201 -9.19567 39.6011)" x="45" y="-29.5647" width="31.0545" height="64.5647" xlink:href="flag_Images\flag_ImgID9.png"/>
   </g>
   <g style="clip-path:url(#id9)">
    <image id="_95826800" transform="matrix(0.425201 0 0 -0.425201 37.6281 22.0406)" x="45" y="-89.2783" width="39.8441" height="124.278" xlink:href="flag_Images\flag_ImgID10.png"/>
   </g>
   <g style="clip-path:url(#id10)">
    <image id="_95827544" transform="matrix(0.425201 0 0 -0.425201 33.8107 21.2305)" x="45" y="-39.2559" width="62.2859" height="74.2559" xlink:href="flag_Images\flag_ImgID11.png"/>
   </g>
   <g style="clip-path:url(#id11)">
    <image id="_95827496" transform="matrix(0.425201 0 0 -0.425201 33.9187 46.993)" x="45" y="-31.227" width="43.7977" height="66.227" xlink:href="flag_Images\flag_ImgID12.png"/>
   </g>
  </g>
 </g>
</svg>
