<?xml version="1.0" encoding="UTF-8"?>
<!DOCTYPE svg PUBLIC "-//W3C//DTD SVG 1.1//EN" "http://www.w3.org/Graphics/SVG/1.1/DTD/svg11.dtd">
<!-- Creator: CorelDRAW -->
<svg xmlns="http://www.w3.org/2000/svg" xml:space="preserve" width="50mm" height="110mm" style="shape-rendering:geometricPrecision; text-rendering:geometricPrecision; image-rendering:optimizeQuality; fill-rule:evenodd; clip-rule:evenodd"
viewBox="0 0 50 110"
 xmlns:xlink="http://www.w3.org/1999/xlink">
 <defs>
  <style type="text/css">
   <![CDATA[
    .fil2 {fill:#0093DD}
    .fil0 {fill:#FFF500}
    .fil1 {fill:white}
   ]]>
  </style>
 </defs>
 <g id="Слой_x0020_1">
  <metadata id="CorelCorpID_0Corel-Layer"/>
  <g id="_191547352">
   <polygon id="_192045296" class="fil0" points="-246.21,-122.473 -231.924,-109.735 -228.792,-104.552 -226.65,-99.5963 -223.867,-85.1222 -222.689,-75.2799 -221.038,-61.487 -221.775,-61.5635 -223.249,-61.594 -224.599,-61.2941 -225.967,-60.6658 -227.445,-59.4704 -228.457,-58.0636 -229.141,-56.1791 -229.226,-54.0456 -228.793,-52.3598 -227.33,-50.1266 -225.418,-48.7635 -222.718,-48.0045 -219.743,-47.391 -212.986,-45.7142 -211.038,-44.9676 -208.9,-43.7704 -207.229,-42.4703 -205.57,-40.7104 -204.43,-38.8746 -203.487,-36.9886 -202.749,-35.3076 -202.175,-33.5856 -201.97,-31.1608 -202.011,-28.3376 -202.191,-24.3779 -208.947,-24.3779 -216.644,-24.3779 -223.553,-24.3779 -233.622,-24.3779 -246.21,-24.3779 -246.21,-29.4446 -246.21,-33.2986 -246.21,-42.7286 -246.21,-47.6486 -246.21,-53.7166 -246.21,-64.4586 -246.21,-73.8886 -246.21,-81.7606 -246.21,-89.9196 -246.21,-100.129 -246.21,-110.133 "/>
   <polygon id="_192035840" class="fil1" points="-239.428,-108.325 -238.382,-107.045 -237.065,-105.239 -235.855,-103.337 -234.529,-100.879 -233.308,-98.0821 -232.39,-95.3766 -231.488,-91.5153 -230.877,-86.8291 -230.261,-81.6618 -229.487,-75.1703 -228.968,-70.8221 -228.506,-66.9483 -229.723,-66.2602 -231.638,-64.7938 -232.654,-63.7604 -233.992,-61.97 -235.142,-59.6659 -235.592,-58.2626 -239.428,-58.2626 -239.428,-62.2023 -239.428,-76.6519 -239.428,-92.9077 "/>
   <polygon id="_192036872" class="fil1" points="-239.428,-51.4797 -235.592,-51.4797 -235.223,-50.2902 -234.515,-48.6712 -233.56,-47.0957 -232.383,-45.6435 -230.846,-44.2282 -229.062,-43.0401 -227.084,-42.1409 -225.181,-41.6142 -223.881,-41.3095 -221.983,-40.7742 -219.274,-40.1995 -217.222,-39.8711 -215.143,-39.293 -213.1,-38.4213 -211.553,-37.2478 -210.163,-35.5183 -209.318,-33.6381 -208.947,-31.1608 -211.146,-31.1608 -215.415,-31.1608 -219.111,-31.1608 -222.644,-31.1608 -227.32,-31.1608 -232.738,-31.1608 -237.664,-31.1608 -239.428,-31.1608 -239.428,-33.3031 -239.428,-36.0124 -239.428,-39.0501 -239.428,-42.0878 -239.428,-45.8644 -239.428,-49.3126 "/>
  </g>
  <g id="_192047288">
   <polygon id="_190497224" class="fil0" points="-150.125,-123.265 -164.411,-110.526 -167.543,-105.344 -169.685,-100.388 -172.468,-85.9135 -173.646,-76.0712 -175.297,-62.2783 -174.56,-62.3548 -173.086,-62.3853 -171.736,-62.0854 -170.368,-61.4571 -168.89,-60.2617 -167.878,-58.8549 -167.194,-56.9704 -167.109,-54.8369 -167.542,-53.1511 -169.005,-50.9179 -170.917,-49.5548 -173.617,-48.7958 -176.592,-48.1823 -183.349,-46.5055 -185.297,-45.7589 -187.435,-44.5617 -189.106,-43.2616 -190.765,-41.5017 -191.905,-39.6659 -192.848,-37.7799 -193.586,-36.0989 -194.16,-34.3769 -194.365,-31.9521 -194.324,-29.1289 -194.144,-25.1692 -187.388,-25.1692 -179.691,-25.1692 -172.782,-25.1692 -162.713,-25.1692 -150.125,-25.1692 -150.125,-30.2359 -150.125,-34.0899 -150.125,-43.5199 -150.125,-48.4399 -150.125,-54.5079 -150.125,-65.2499 -150.125,-74.6799 -150.125,-82.5519 -150.125,-90.7109 -150.125,-100.92 -150.125,-110.924 "/>
   <polygon id="_192033560" class="fil1" points="-156.907,-109.117 -157.953,-107.837 -159.27,-106.031 -160.48,-104.128 -161.806,-101.671 -163.027,-98.8734 -163.945,-96.1679 -164.847,-92.3066 -165.458,-87.6204 -166.074,-82.4531 -166.848,-75.9616 -167.367,-71.6134 -167.829,-67.7396 -166.612,-67.0515 -164.697,-65.5851 -163.681,-64.5517 -162.343,-62.7613 -161.193,-60.4572 -160.743,-59.0539 -156.907,-59.0539 -156.907,-62.9936 -156.907,-77.4432 -156.907,-93.699 "/>
   <polygon id="_191651768" class="fil1" points="-156.907,-52.271 -160.743,-52.271 -161.112,-51.0815 -161.82,-49.4625 -162.775,-47.887 -163.952,-46.4348 -165.489,-45.0195 -167.273,-43.8314 -169.251,-42.9322 -171.154,-42.4055 -172.454,-42.1008 -174.352,-41.5655 -177.061,-40.9908 -179.113,-40.6624 -181.192,-40.0843 -183.235,-39.2126 -184.782,-38.0391 -186.172,-36.3096 -187.017,-34.4294 -187.388,-31.9521 -185.189,-31.9521 -180.92,-31.9521 -177.224,-31.9521 -173.691,-31.9521 -169.015,-31.9521 -163.597,-31.9521 -158.671,-31.9521 -156.907,-31.9521 -156.907,-34.0944 -156.907,-36.8037 -156.907,-39.8414 -156.907,-42.8791 -156.907,-46.6557 -156.907,-50.1039 "/>
  </g>
  <g id="_191652776">
   <polygon id="_192043688" class="fil2" points="30.2379,22.0495 30.7692,24.0793 31.6903,27.1939 32.6105,29.9793 33.8269,33.3504 34.941,36.2378 36.0584,38.5966 37.1597,40.7557 38.1801,42.7079 39.2024,44.6338 40.0602,46.5709 40.9633,48.7055 42.3015,50.9588 42.7951,52.9691 43.3161,55.9341 43.5854,58.722 43.6481,60.864 43.5905,64.1403 43.0127,67.6469 42.4426,70.2161 41.4822,73.3448 40.5762,75.6444 39.0589,78.7453 37.0887,81.9451 34.7413,85.0087 31.9409,87.9584 29.1439,90.3541 27.8141,91.3827 26.8236,92.3602 25.6963,93.7809 25.0291,94.8491 24.1961,93.5457 23.2348,92.3602 22.077,91.2371 20.9144,90.3541 19.4625,89.1698 17.7888,87.6439 15.9743,85.7601 14.3645,83.8431 12.9741,81.9512 11.6024,79.8031 10.1599,77.1198 9.2989,75.2129 8.4323,72.9317 7.617,70.2193 7.0461,67.6469 6.7276,65.7823 6.6455,63.1551 6.6455,61.6773 6.4167,60.2819 6.5389,57.8166 6.8258,55.358 7.3164,52.7315 7.7569,50.9587 8.4517,48.6234 9.6011,46.4888 10.856,44.6338 12.3937,41.7276 14.0357,38.5257 15.091,36.3041 16.5679,32.4454 17.584,29.5827 18.7956,25.7994 19.5796,22.9983 20.4096,19.4719 20.9945,16.2731 22.1624,14.3056 23.9686,13.1562 26.2674,12.992 27.6631,14.5519 28.6483,16.4402 29.4531,18.4958 29.847,20.3883 "/>
   <polygon id="_192035240" class="fil1" points="26.3794,33.5061 27.1013,35.4002 27.9877,37.5415 29.0619,39.9193 30.0635,41.9634 31.019,43.785 31.7292,45.0687 32.446,46.3106 30.933,46.8663 28.3645,48.2604 26.7472,49.5121 25.0291,51.3144 24.2796,50.4458 22.8845,49.1364 21.1014,47.874 19.3748,46.9728 17.6128,46.3106 18.7255,44.3605 20.1967,41.5652 21.4933,38.8479 22.4894,36.5541 23.3997,34.2581 24.0908,32.353 24.5307,31.0499 25.0292,29.4696 25.5291,31.0538 "/>
   <polygon id="_190001464" class="fil1" points="15.5079,52.7465 16.9002,53.2803 17.609,53.6696 18.6358,54.4091 19.3538,55.0866 20.2284,56.1817 21.0377,57.704 21.475,59.1405 21.6373,60.3651 21.6518,60.864 20.3067,60.864 18.7897,60.864 16.7807,60.864 15.0177,60.864 13.1932,60.864 13.2194,59.6284 13.3115,58.2356 13.5298,56.4284 13.816,54.8286 14.0841,53.6445 14.3867,52.5078 15.1035,52.6419 "/>
   <polygon id="_191648840" class="fil1" points="34.5858,52.7465 33.1935,53.2803 32.4847,53.6696 31.4579,54.4091 30.7399,55.0866 29.8653,56.1817 29.056,57.704 28.6187,59.1405 28.4564,60.3651 28.4419,60.864 29.787,60.864 31.304,60.864 33.313,60.864 35.076,60.864 36.9005,60.864 36.8743,59.6284 36.7822,58.2356 36.5639,56.4284 36.2777,54.8286 36.0096,53.6445 35.707,52.5078 34.9902,52.6419 "/>
   <polygon id="_192045104" class="fil1" points="17.1087,67.6469 18.5027,67.6469 19.6507,67.6469 20.7577,67.6469 21.6518,67.6469 21.6518,68.6892 21.6518,70.7392 21.6518,72.4202 21.6518,73.6912 21.6518,75.2492 21.6518,76.6842 21.6518,78.2422 21.6518,79.5542 21.6518,80.7842 21.6518,81.8958 20.8489,81.022 20.1672,80.2239 19.5122,79.4021 18.7484,78.3654 18.1354,77.4621 17.6138,76.6352 17.0673,75.7004 16.3884,74.4203 15.9982,73.6108 15.3918,72.2131 14.9578,71.074 14.5468,69.8434 14.1276,68.3582 13.9556,67.6469 15.7147,67.6469 "/>
   <polygon id="_192043136" class="fil1" points="33.1144,67.6469 31.5987,67.6469 30.3505,67.6469 29.1468,67.6469 28.1747,67.6469 28.1747,68.6892 28.1747,70.7392 28.1747,72.4202 28.1747,73.6912 28.1747,75.2492 28.1747,76.6842 28.1747,78.2422 28.1747,79.5542 28.1747,80.7842 28.1747,81.8958 29.0477,81.022 29.7889,80.2239 30.5011,79.4021 31.3315,78.3654 31.998,77.4621 32.5652,76.6352 33.1594,75.7004 33.8975,74.4203 34.3218,73.6108 34.9811,72.2131 35.453,71.074 35.8999,69.8434 36.3557,68.3582 36.5427,67.6469 34.63,67.6469 "/>
  </g>
  <polygon class="fil2" points="-195.838,-149.864 -194.898,-147.759 -193.986,-144.61 -193.583,-140.589 -193.649,-138.03 -193.781,-134.746 -194.014,-130.471 -194.278,-126.373 -194.505,-123.035 -194.804,-118.483 -195.068,-113.727 -195.244,-108.965 -195.29,-104.529 -194.96,-99.5957 -194.093,-94.1793 -192.806,-88.9148 -191.605,-84.988 -190.592,-82.0424 -188.555,-76.6828 -186.87,-73.3147 -185.446,-70.5813 -183.551,-66.9288 -182.402,-64.3016 -181.066,-61.187 -180.344,-57.2312 -180.045,-52.5536 -186.828,-52.5536 -186.971,-55.4376 -187.546,-59.0351 -188.313,-62.6596 -189.791,-65.1226 -191.728,-67.9332 -193.513,-71.2256 -195.018,-74.3301 -196.496,-77.7767 -197.715,-81.035 -198.664,-83.948 -199.663,-80.8928 -200.83,-77.7811 -201.871,-75.3068 -202.931,-73.006 -204.014,-70.8375 -205.057,-68.8966 -206.081,-67.107 -207.689,-63.6448 -209.307,-60.9098 -209.533,-60.0776 -209.855,-58.6979 -210.176,-56.9104 -210.38,-55.2023 -210.458,-54.1321 -210.491,-53.2884 -210.5,-52.5536 -217.281,-52.5536 -217.245,-54.1934 -217.145,-55.7156 -216.916,-57.7309 -216.598,-59.6252 -216.182,-61.5165 -215.648,-63.4296 -214.786,-65.2398 -213.882,-66.8854 -213.143,-68.1814 -212.51,-69.3971 -211.77,-70.795 -210.378,-73.4713 -209.766,-74.6766 -208.662,-76.9629 -207.946,-78.7947 -207.346,-80.3771 -206.559,-82.5419 -205.791,-84.7813 -205.103,-86.938 -204.267,-89.8404 -203.656,-92.2689 -203.096,-94.8803 -202.718,-97.0218 -202.508,-98.4609 -202.278,-100.456 -202.14,-102.143 -202.054,-103.891 -202.036,-106.421 -202.081,-108.89 -202.137,-110.782 -202.217,-112.798 -202.305,-114.649 -202.421,-116.768 -202.549,-118.887 -202.682,-120.945 -202.847,-123.392 -203.052,-126.416 -203.247,-129.398 -203.371,-131.435 -203.525,-134.294 -203.635,-136.783 -203.703,-138.819 -203.741,-140.918 -203.606,-142.953 -203.371,-144.456 -203.002,-146.02 -202.577,-147.359 -202.049,-148.691 -201.491,-149.861 -200.642,-151.349 -199.802,-152.585 -198.969,-153.646 -198.664,-154 -198.139,-153.379 -197.643,-152.743 -197.029,-151.878 -196.484,-151.021 "/>
 </g>
</svg>
