<?xml version="1.0" encoding="UTF-8"?>
<!DOCTYPE svg PUBLIC "-//W3C//DTD SVG 1.1//EN" "http://www.w3.org/Graphics/SVG/1.1/DTD/svg11.dtd">
<!-- Creator: CorelDRAW -->
<svg xmlns="http://www.w3.org/2000/svg" xml:space="preserve" width="50mm" height="100mm" style="shape-rendering:geometricPrecision; text-rendering:geometricPrecision; image-rendering:optimizeQuality; fill-rule:evenodd; clip-rule:evenodd"
viewBox="0 0 50 100"
 xmlns:xlink="http://www.w3.org/1999/xlink">
 <defs>
  <style type="text/css">
   <![CDATA[
    .fil2 {fill:#1F1A17}
    .fil0 {fill:#FFF500}
    .fil1 {fill:white}
   ]]>
  </style>
 </defs>
 <g id="Слой_x0020_1">
  <metadata id="CorelCorpID_0Corel-Layer"/>
  <g id="_191547352">
   <polygon id="_192045296" class="fil0" points="-108.605,4.7861 -94.3188,17.5248 -91.1872,22.7072 -89.0447,27.6631 -86.2625,42.1372 -85.0844,51.9795 -83.4334,65.7724 -84.17,65.6959 -85.6443,65.6654 -86.9942,65.9653 -88.3618,66.5936 -89.8405,67.789 -90.8526,69.1958 -91.5364,71.0803 -91.6211,73.2138 -91.1882,74.8996 -89.7254,77.1328 -87.8129,78.4959 -85.1134,79.2549 -82.1384,79.8684 -75.3816,81.5452 -73.4331,82.2918 -71.2956,83.489 -69.6238,84.7891 -67.9653,86.549 -66.8247,88.3848 -65.8817,90.2708 -65.1437,91.9518 -64.5697,93.6738 -64.3647,96.0986 -64.4057,98.9218 -64.5863,102.882 -71.3426,102.882 -79.0388,102.882 -85.9483,102.882 -96.0167,102.882 -108.605,102.882 -108.605,97.8148 -108.605,93.9608 -108.605,84.5308 -108.605,79.6108 -108.605,73.5428 -108.605,62.8008 -108.605,53.3708 -108.605,45.4988 -108.605,37.3398 -108.605,27.1308 -108.605,17.1268 "/>
   <polygon id="_192035840" class="fil1" points="-101.823,18.9342 -100.778,20.2142 -99.4605,22.02 -98.2499,23.9229 -96.9237,26.3801 -95.7029,29.1773 -94.7851,31.8828 -93.8833,35.7441 -93.2724,40.4303 -92.656,45.5976 -91.8817,52.0891 -91.363,56.4373 -90.901,60.3111 -92.1181,60.9992 -94.0336,62.4656 -95.0495,63.499 -96.3875,65.2894 -97.5373,67.5935 -97.9869,68.9968 -101.823,68.9968 -101.823,65.0571 -101.823,50.6075 -101.823,34.3517 "/>
   <polygon id="_192036872" class="fil1" points="-101.823,75.7797 -97.9869,75.7797 -97.6177,76.9692 -96.91,78.5882 -95.955,80.1637 -94.7779,81.6159 -93.2407,83.0312 -91.4574,84.2193 -89.4791,85.1185 -87.5759,85.6452 -86.276,85.9499 -84.3785,86.4852 -81.6692,87.0599 -79.6167,87.3883 -77.5382,87.9664 -75.4951,88.8381 -73.9481,90.0116 -72.5585,91.7411 -71.7135,93.6213 -71.3426,96.0986 -73.5413,96.0986 -77.8105,96.0986 -81.5057,96.0986 -85.0388,96.0986 -89.715,96.0986 -95.1336,96.0986 -100.06,96.0986 -101.823,96.0986 -101.823,93.9563 -101.823,91.247 -101.823,88.2093 -101.823,85.1716 -101.823,81.395 -101.823,77.9468 "/>
  </g>
  <g id="_192047288">
   <polygon id="_190497224" class="fil0" points="46.8494,1.137 32.5634,13.8757 29.4318,19.0581 27.2893,24.014 24.5071,38.4881 23.329,48.3304 21.678,62.1233 22.4146,62.0468 23.8889,62.0163 25.2388,62.3162 26.6064,62.9445 28.0851,64.1399 29.0972,65.5467 29.781,67.4312 29.8657,69.5647 29.4328,71.2505 27.97,73.4837 26.0575,74.8468 23.358,75.6058 20.383,76.2193 13.6262,77.8961 11.6777,78.6427 9.5402,79.8399 7.8684,81.14 6.2099,82.8999 5.0693,84.7357 4.1263,86.6217 3.3883,88.3027 2.8143,90.0247 2.6093,92.4495 2.6503,95.2727 2.8309,99.2324 9.5872,99.2324 17.2834,99.2324 24.1929,99.2324 34.2613,99.2324 46.8494,99.2324 46.8494,94.1657 46.8494,90.3117 46.8494,80.8817 46.8494,75.9617 46.8494,69.8937 46.8494,59.1517 46.8494,49.7217 46.8494,41.8497 46.8494,33.6907 46.8494,23.4817 46.8494,13.4777 "/>
   <polygon id="_192033560" class="fil1" points="40.0679,15.2851 39.0222,16.5651 37.7051,18.3709 36.4945,20.2738 35.1683,22.731 33.9475,25.5282 33.0297,28.2337 32.1279,32.095 31.517,36.7812 30.9006,41.9485 30.1263,48.44 29.6076,52.7882 29.1456,56.662 30.3627,57.3501 32.2782,58.8165 33.2941,59.8499 34.6321,61.6403 35.7819,63.9444 36.2315,65.3477 40.0679,65.3477 40.0679,61.408 40.0679,46.9584 40.0679,30.7026 "/>
   <polygon id="_191651768" class="fil1" points="40.0679,72.1306 36.2315,72.1306 35.8623,73.3201 35.1546,74.9391 34.1996,76.5146 33.0225,77.9668 31.4853,79.3821 29.702,80.5702 27.7237,81.4694 25.8205,81.9961 24.5206,82.3008 22.6231,82.8361 19.9138,83.4108 17.8613,83.7392 15.7828,84.3173 13.7397,85.189 12.1927,86.3625 10.8031,88.092 9.9581,89.9722 9.5872,92.4495 11.7859,92.4495 16.0551,92.4495 19.7503,92.4495 23.2834,92.4495 27.9596,92.4495 33.3782,92.4495 38.3042,92.4495 40.0679,92.4495 40.0679,90.3072 40.0679,87.5979 40.0679,84.5602 40.0679,81.5225 40.0679,77.7459 40.0679,74.2977 "/>
  </g>
  <g id="_192038528">
   <polygon id="_192043688" class="fil2" points="-341.4,144.658 -340.869,146.688 -339.948,149.803 -339.028,152.588 -337.811,155.959 -336.697,158.846 -335.58,161.205 -334.479,163.364 -333.458,165.317 -332.436,167.243 -331.578,169.18 -330.675,171.314 -329.337,173.568 -328.843,175.578 -328.322,178.543 -328.053,181.331 -327.99,183.473 -328.048,186.749 -328.626,190.256 -329.196,192.825 -330.156,195.954 -331.062,198.253 -332.579,201.354 -334.55,204.554 -336.897,207.617 -339.697,210.567 -342.494,212.963 -343.824,213.991 -344.815,214.969 -345.942,216.39 -346.609,217.458 -347.442,216.154 -348.403,214.969 -349.561,213.846 -350.724,212.963 -352.176,211.779 -353.849,210.253 -355.664,208.369 -357.274,206.452 -358.664,204.56 -360.036,202.412 -361.478,199.729 -362.339,197.822 -363.206,195.54 -364.021,192.828 -364.592,190.256 -364.911,188.391 -364.993,185.764 -364.993,184.286 -365.221,182.891 -365.099,180.425 -364.812,177.967 -364.322,175.34 -363.881,173.567 -363.187,171.232 -362.037,169.098 -360.782,167.243 -359.245,164.336 -357.603,161.134 -356.547,158.913 -355.07,155.054 -354.054,152.191 -352.843,148.408 -352.059,145.607 -351.229,142.081 -350.644,138.882 -349.476,136.914 -347.67,135.765 -345.371,135.601 -343.975,137.161 -342.99,139.049 -342.185,141.105 -341.791,142.997 "/>
   <polygon id="_192035240" class="fil1" points="-345.259,156.115 -344.537,158.009 -343.651,160.15 -342.576,162.528 -341.575,164.572 -340.619,166.394 -339.909,167.677 -339.192,168.919 -340.705,169.475 -343.274,170.869 -344.891,172.121 -346.609,173.923 -347.359,173.055 -348.754,171.745 -350.537,170.483 -352.263,169.582 -354.025,168.919 -352.913,166.969 -351.442,164.174 -350.145,161.457 -349.149,159.163 -348.239,156.867 -347.547,154.962 -347.108,153.659 -346.609,152.078 -346.109,153.663 "/>
   <polygon id="_190001464" class="fil1" points="-356.13,175.355 -354.738,175.889 -354.029,176.278 -353.002,177.018 -352.284,177.695 -351.41,178.79 -350.601,180.313 -350.163,181.749 -350.001,182.974 -349.986,183.473 -351.332,183.473 -352.849,183.473 -354.858,183.473 -356.62,183.473 -358.445,183.473 -358.419,182.237 -358.327,180.844 -358.108,179.037 -357.822,177.437 -357.554,176.253 -357.252,175.117 -356.535,175.251 "/>
   <polygon id="_191648840" class="fil1" points="-337.052,175.355 -338.445,175.889 -339.154,176.278 -340.18,177.018 -340.898,177.695 -341.773,178.79 -342.582,180.313 -343.019,181.749 -343.182,182.974 -343.196,183.473 -341.851,183.473 -340.334,183.473 -338.325,183.473 -336.562,183.473 -334.738,183.473 -334.764,182.237 -334.856,180.844 -335.074,179.037 -335.361,177.437 -335.629,176.253 -335.931,175.117 -336.648,175.251 "/>
   <polygon id="_192045104" class="fil1" points="-354.53,190.256 -353.136,190.256 -351.988,190.256 -350.881,190.256 -349.986,190.256 -349.986,191.298 -349.986,193.348 -349.986,195.029 -349.986,196.3 -349.986,197.858 -349.986,199.293 -349.986,200.851 -349.986,202.163 -349.986,203.393 -349.986,204.505 -350.789,203.631 -351.471,202.833 -352.126,202.011 -352.89,200.974 -353.503,200.071 -354.024,199.244 -354.571,198.309 -355.25,197.029 -355.64,196.22 -356.246,194.822 -356.68,193.683 -357.091,192.452 -357.511,190.967 -357.683,190.256 -355.923,190.256 "/>
   <polygon id="_192043136" class="fil1" points="-338.524,190.256 -340.04,190.256 -341.288,190.256 -342.491,190.256 -343.464,190.256 -343.464,191.298 -343.464,193.348 -343.464,195.029 -343.464,196.3 -343.464,197.858 -343.464,199.293 -343.464,200.851 -343.464,202.163 -343.464,203.393 -343.464,204.505 -342.591,203.631 -341.849,202.833 -341.137,202.011 -340.307,200.974 -339.64,200.071 -339.073,199.244 -338.479,198.309 -337.741,197.029 -337.316,196.22 -336.657,194.822 -336.185,193.683 -335.738,192.452 -335.283,190.967 -335.096,190.256 -337.008,190.256 "/>
  </g>
  <polygon class="fil2" points="-343.914,40.3596 -342.973,42.4651 -342.062,45.6135 -341.659,49.6347 -341.724,52.1939 -341.856,55.4782 -342.09,59.7525 -342.354,63.8511 -342.58,67.1888 -342.879,71.7411 -343.143,76.497 -343.32,81.259 -343.366,85.6949 -343.035,90.6282 -342.168,96.0446 -340.882,101.309 -339.681,105.236 -338.667,108.182 -336.631,113.541 -334.946,116.909 -333.521,119.643 -331.627,123.295 -330.477,125.922 -329.142,129.037 -328.42,132.993 -328.121,137.67 -334.904,137.67 -335.046,134.786 -335.622,131.189 -336.388,127.564 -337.866,125.101 -339.803,122.291 -341.589,118.998 -343.094,115.894 -344.572,112.447 -345.791,109.189 -346.74,106.276 -347.738,109.331 -348.905,112.443 -349.946,114.917 -351.006,117.218 -352.09,119.386 -353.132,121.327 -354.156,123.117 -355.764,126.579 -357.382,129.314 -357.608,130.146 -357.93,131.526 -358.251,133.314 -358.456,135.022 -358.533,136.092 -358.566,136.935 -358.576,137.67 -365.357,137.67 -365.32,136.031 -365.22,134.508 -364.991,132.493 -364.674,130.599 -364.257,128.707 -363.724,126.794 -362.861,124.984 -361.958,123.339 -361.219,122.043 -360.586,120.827 -359.845,119.429 -358.453,116.753 -357.841,115.547 -356.738,113.261 -356.021,111.429 -355.422,109.847 -354.634,107.682 -353.867,105.443 -353.179,103.286 -352.343,100.384 -351.731,97.955 -351.171,95.3436 -350.794,93.2021 -350.584,91.763 -350.353,89.7682 -350.215,88.0809 -350.129,86.3327 -350.111,83.8025 -350.156,81.3342 -350.213,79.4416 -350.292,77.4257 -350.38,75.5746 -350.496,73.4555 -350.624,71.3371 -350.757,69.2794 -350.922,66.8315 -351.128,63.8077 -351.322,60.8257 -351.446,58.7892 -351.601,55.9295 -351.71,53.4408 -351.778,51.4045 -351.816,49.3063 -351.681,47.271 -351.447,45.7677 -351.077,44.2043 -350.652,42.8648 -350.124,41.5334 -349.567,40.3631 -348.717,38.8748 -347.878,37.6387 -347.045,36.5782 -346.74,36.2235 -346.214,36.8453 -345.719,37.4806 -345.105,38.3458 -344.56,39.2027 "/>
 </g>
</svg>
