<?xml version="1.0" encoding="UTF-8"?>
<!DOCTYPE svg PUBLIC "-//W3C//DTD SVG 1.1//EN" "http://www.w3.org/Graphics/SVG/1.1/DTD/svg11.dtd">
<!-- Creator: CorelDRAW -->
<svg xmlns="http://www.w3.org/2000/svg" xml:space="preserve" width="50mm" height="110mm" style="shape-rendering:geometricPrecision; text-rendering:geometricPrecision; image-rendering:optimizeQuality; fill-rule:evenodd; clip-rule:evenodd"
viewBox="0 0 50 110"
 xmlns:xlink="http://www.w3.org/1999/xlink">
 <defs>
  <style type="text/css">
   <![CDATA[
    .fil3 {fill:#0093DD}
    .fil2 {fill:#1F1A17}
    .fil0 {fill:#FFF500}
    .fil1 {fill:white}
   ]]>
  </style>
 </defs>
 <g id="Слой_x0020_1">
  <metadata id="CorelCorpID_0Corel-Layer"/>
  <g id="_191547352">
   <polygon id="_192045296" class="fil0" points="-246.21,-122.473 -231.924,-109.735 -228.792,-104.552 -226.65,-99.5963 -223.867,-85.1222 -222.689,-75.2799 -221.038,-61.487 -221.775,-61.5635 -223.249,-61.594 -224.599,-61.2941 -225.967,-60.6658 -227.445,-59.4704 -228.457,-58.0636 -229.141,-56.1791 -229.226,-54.0456 -228.793,-52.3598 -227.33,-50.1266 -225.418,-48.7635 -222.718,-48.0045 -219.743,-47.391 -212.986,-45.7142 -211.038,-44.9676 -208.9,-43.7704 -207.229,-42.4703 -205.57,-40.7104 -204.43,-38.8746 -203.487,-36.9886 -202.749,-35.3076 -202.175,-33.5856 -201.97,-31.1608 -202.011,-28.3376 -202.191,-24.3779 -208.947,-24.3779 -216.644,-24.3779 -223.553,-24.3779 -233.622,-24.3779 -246.21,-24.3779 -246.21,-29.4446 -246.21,-33.2986 -246.21,-42.7286 -246.21,-47.6486 -246.21,-53.7166 -246.21,-64.4586 -246.21,-73.8886 -246.21,-81.7606 -246.21,-89.9196 -246.21,-100.129 -246.21,-110.133 "/>
   <polygon id="_192035840" class="fil1" points="-239.428,-108.325 -238.382,-107.045 -237.065,-105.239 -235.855,-103.337 -234.529,-100.879 -233.308,-98.0821 -232.39,-95.3766 -231.488,-91.5153 -230.877,-86.8291 -230.261,-81.6618 -229.487,-75.1703 -228.968,-70.8221 -228.506,-66.9483 -229.723,-66.2602 -231.638,-64.7938 -232.654,-63.7604 -233.992,-61.97 -235.142,-59.6659 -235.592,-58.2626 -239.428,-58.2626 -239.428,-62.2023 -239.428,-76.6519 -239.428,-92.9077 "/>
   <polygon id="_192036872" class="fil1" points="-239.428,-51.4797 -235.592,-51.4797 -235.223,-50.2902 -234.515,-48.6712 -233.56,-47.0957 -232.383,-45.6435 -230.846,-44.2282 -229.062,-43.0401 -227.084,-42.1409 -225.181,-41.6142 -223.881,-41.3095 -221.983,-40.7742 -219.274,-40.1995 -217.222,-39.8711 -215.143,-39.293 -213.1,-38.4213 -211.553,-37.2478 -210.163,-35.5183 -209.318,-33.6381 -208.947,-31.1608 -211.146,-31.1608 -215.415,-31.1608 -219.111,-31.1608 -222.644,-31.1608 -227.32,-31.1608 -232.738,-31.1608 -237.664,-31.1608 -239.428,-31.1608 -239.428,-33.3031 -239.428,-36.0124 -239.428,-39.0501 -239.428,-42.0878 -239.428,-45.8644 -239.428,-49.3126 "/>
  </g>
  <g id="_192047288">
   <polygon id="_190497224" class="fil0" points="-150.125,-123.265 -164.411,-110.526 -167.543,-105.344 -169.685,-100.388 -172.468,-85.9135 -173.646,-76.0712 -175.297,-62.2783 -174.56,-62.3548 -173.086,-62.3853 -171.736,-62.0854 -170.368,-61.4571 -168.89,-60.2617 -167.878,-58.8549 -167.194,-56.9704 -167.109,-54.8369 -167.542,-53.1511 -169.005,-50.9179 -170.917,-49.5548 -173.617,-48.7958 -176.592,-48.1823 -183.349,-46.5055 -185.297,-45.7589 -187.435,-44.5617 -189.106,-43.2616 -190.765,-41.5017 -191.905,-39.6659 -192.848,-37.7799 -193.586,-36.0989 -194.16,-34.3769 -194.365,-31.9521 -194.324,-29.1289 -194.144,-25.1692 -187.388,-25.1692 -179.691,-25.1692 -172.782,-25.1692 -162.713,-25.1692 -150.125,-25.1692 -150.125,-30.2359 -150.125,-34.0899 -150.125,-43.5199 -150.125,-48.4399 -150.125,-54.5079 -150.125,-65.2499 -150.125,-74.6799 -150.125,-82.5519 -150.125,-90.7109 -150.125,-100.92 -150.125,-110.924 "/>
   <polygon id="_192033560" class="fil1" points="-156.907,-109.117 -157.953,-107.837 -159.27,-106.031 -160.48,-104.128 -161.806,-101.671 -163.027,-98.8734 -163.945,-96.1679 -164.847,-92.3066 -165.458,-87.6204 -166.074,-82.4531 -166.848,-75.9616 -167.367,-71.6134 -167.829,-67.7396 -166.612,-67.0515 -164.697,-65.5851 -163.681,-64.5517 -162.343,-62.7613 -161.193,-60.4572 -160.743,-59.0539 -156.907,-59.0539 -156.907,-62.9936 -156.907,-77.4432 -156.907,-93.699 "/>
   <polygon id="_191651768" class="fil1" points="-156.907,-52.271 -160.743,-52.271 -161.112,-51.0815 -161.82,-49.4625 -162.775,-47.887 -163.952,-46.4348 -165.489,-45.0195 -167.273,-43.8314 -169.251,-42.9322 -171.154,-42.4055 -172.454,-42.1008 -174.352,-41.5655 -177.061,-40.9908 -179.113,-40.6624 -181.192,-40.0843 -183.235,-39.2126 -184.782,-38.0391 -186.172,-36.3096 -187.017,-34.4294 -187.388,-31.9521 -185.189,-31.9521 -180.92,-31.9521 -177.224,-31.9521 -173.691,-31.9521 -169.015,-31.9521 -163.597,-31.9521 -158.671,-31.9521 -156.907,-31.9521 -156.907,-34.0944 -156.907,-36.8037 -156.907,-39.8414 -156.907,-42.8791 -156.907,-46.6557 -156.907,-50.1039 "/>
  </g>
  <g id="_192038528">
   <polygon id="_192043688" class="fil2" points="-341.4,149.658 -340.869,151.688 -339.948,154.803 -339.028,157.588 -337.811,160.959 -336.697,163.846 -335.58,166.205 -334.479,168.364 -333.458,170.317 -332.436,172.243 -331.578,174.18 -330.675,176.314 -329.337,178.568 -328.843,180.578 -328.322,183.543 -328.053,186.331 -327.99,188.473 -328.048,191.749 -328.626,195.256 -329.196,197.825 -330.156,200.954 -331.062,203.253 -332.579,206.354 -334.55,209.554 -336.897,212.617 -339.697,215.567 -342.494,217.963 -343.824,218.991 -344.815,219.969 -345.942,221.39 -346.609,222.458 -347.442,221.154 -348.403,219.969 -349.561,218.846 -350.724,217.963 -352.176,216.779 -353.849,215.253 -355.664,213.369 -357.274,211.452 -358.664,209.56 -360.036,207.412 -361.478,204.729 -362.339,202.822 -363.206,200.54 -364.021,197.828 -364.592,195.256 -364.911,193.391 -364.993,190.764 -364.993,189.286 -365.221,187.891 -365.099,185.425 -364.812,182.967 -364.322,180.34 -363.881,178.567 -363.187,176.232 -362.037,174.098 -360.782,172.243 -359.245,169.336 -357.603,166.134 -356.547,163.913 -355.07,160.054 -354.054,157.191 -352.843,153.408 -352.059,150.607 -351.229,147.081 -350.644,143.882 -349.476,141.914 -347.67,140.765 -345.371,140.601 -343.975,142.161 -342.99,144.049 -342.185,146.105 -341.791,147.997 "/>
   <polygon id="_192035240" class="fil1" points="-345.259,161.115 -344.537,163.009 -343.651,165.15 -342.576,167.528 -341.575,169.572 -340.619,171.394 -339.909,172.677 -339.192,173.919 -340.705,174.475 -343.274,175.869 -344.891,177.121 -346.609,178.923 -347.359,178.055 -348.754,176.745 -350.537,175.483 -352.263,174.582 -354.025,173.919 -352.913,171.969 -351.442,169.174 -350.145,166.457 -349.149,164.163 -348.239,161.867 -347.547,159.962 -347.108,158.659 -346.609,157.078 -346.109,158.663 "/>
   <polygon id="_190001464" class="fil1" points="-356.13,180.355 -354.738,180.889 -354.029,181.278 -353.002,182.018 -352.284,182.695 -351.41,183.79 -350.601,185.313 -350.163,186.749 -350.001,187.974 -349.986,188.473 -351.332,188.473 -352.849,188.473 -354.858,188.473 -356.62,188.473 -358.445,188.473 -358.419,187.237 -358.327,185.844 -358.108,184.037 -357.822,182.437 -357.554,181.253 -357.252,180.117 -356.535,180.251 "/>
   <polygon id="_191648840" class="fil1" points="-337.052,180.355 -338.445,180.889 -339.154,181.278 -340.18,182.018 -340.898,182.695 -341.773,183.79 -342.582,185.313 -343.019,186.749 -343.182,187.974 -343.196,188.473 -341.851,188.473 -340.334,188.473 -338.325,188.473 -336.562,188.473 -334.738,188.473 -334.764,187.237 -334.856,185.844 -335.074,184.037 -335.361,182.437 -335.629,181.253 -335.931,180.117 -336.648,180.251 "/>
   <polygon id="_192045104" class="fil1" points="-354.53,195.256 -353.136,195.256 -351.988,195.256 -350.881,195.256 -349.986,195.256 -349.986,196.298 -349.986,198.348 -349.986,200.029 -349.986,201.3 -349.986,202.858 -349.986,204.293 -349.986,205.851 -349.986,207.163 -349.986,208.393 -349.986,209.505 -350.789,208.631 -351.471,207.833 -352.126,207.011 -352.89,205.974 -353.503,205.071 -354.024,204.244 -354.571,203.309 -355.25,202.029 -355.64,201.22 -356.246,199.822 -356.68,198.683 -357.091,197.452 -357.511,195.967 -357.683,195.256 -355.923,195.256 "/>
   <polygon id="_192043136" class="fil1" points="-338.524,195.256 -340.04,195.256 -341.288,195.256 -342.491,195.256 -343.464,195.256 -343.464,196.298 -343.464,198.348 -343.464,200.029 -343.464,201.3 -343.464,202.858 -343.464,204.293 -343.464,205.851 -343.464,207.163 -343.464,208.393 -343.464,209.505 -342.591,208.631 -341.849,207.833 -341.137,207.011 -340.307,205.974 -339.64,205.071 -339.073,204.244 -338.479,203.309 -337.741,202.029 -337.316,201.22 -336.657,199.822 -336.185,198.683 -335.738,197.452 -335.283,195.967 -335.096,195.256 -337.008,195.256 "/>
  </g>
  <polygon class="fil3" points="27.4601,7.4576 28.4008,9.5631 29.3122,12.7115 29.715,16.7327 29.6498,19.2919 29.5177,22.5762 29.2842,26.8505 29.0199,30.9491 28.7934,34.2868 28.4948,38.8391 28.2305,43.595 28.0541,48.357 28.0081,52.7929 28.3388,57.7262 29.2057,63.1426 30.492,68.4071 31.6929,72.3339 32.7065,75.2795 34.7431,80.6391 36.4281,84.0072 37.8526,86.7406 39.7471,90.3931 40.8965,93.0203 42.2319,96.1349 42.9541,100.091 43.2529,104.768 36.47,104.768 36.3276,101.884 35.7519,98.2868 34.9853,94.6623 33.5075,92.1993 31.5706,89.3887 29.7849,86.0963 28.2799,82.9918 26.802,79.5452 25.583,76.2869 24.634,73.3739 23.6356,76.4291 22.4683,79.5408 21.4278,82.0151 20.3677,84.3159 19.2839,86.4844 18.2415,88.4253 17.2176,90.2149 15.6097,93.6771 13.9915,96.4121 13.7656,97.2443 13.4434,98.624 13.1227,100.412 12.9181,102.12 12.8407,103.19 12.8073,104.034 12.798,104.768 6.0169,104.768 6.0536,103.129 6.1534,101.606 6.3827,99.591 6.7,97.6967 7.1164,95.8054 7.6501,93.8923 8.5125,92.0821 9.416,90.4365 10.1552,89.1405 10.7879,87.9248 11.5287,86.5269 12.9206,83.8506 13.5324,82.6453 14.6362,80.359 15.3525,78.5272 15.9522,76.9448 16.7394,74.78 17.5069,72.5406 18.1949,70.3839 19.0309,67.4815 19.6427,65.053 20.2025,62.4416 20.58,60.3001 20.7901,58.861 21.0207,56.8662 21.1587,55.1789 21.2446,53.4307 21.2626,50.9005 21.2173,48.4322 21.1611,46.5396 21.0816,44.5237 20.9933,42.6726 20.8775,40.5535 20.7493,38.4351 20.6162,36.3774 20.4515,33.9295 20.2462,30.9057 20.0512,27.9237 19.9274,25.8872 19.7732,23.0275 19.6638,20.5388 19.5957,18.5025 19.5574,16.4043 19.6927,14.369 19.9269,12.8657 20.2968,11.3023 20.7217,9.9628 21.2495,8.6314 21.8072,7.4611 22.6564,5.9728 23.4962,4.7367 24.3292,3.6762 24.634,3.3215 25.1596,3.9433 25.6551,4.5786 26.269,5.4438 26.814,6.3007 "/>
 </g>
</svg>
